<?xml version="1.0" encoding="utf-8"?>
<!-- Generator: Adobe Illustrator 18.1.1, SVG Export Plug-In . SVG Version: 6.00 Build 0)  -->
<svg version="1.1" id="Calque_1" xmlns="http://www.w3.org/2000/svg" xmlns:xlink="http://www.w3.org/1999/xlink" x="0px" y="0px"
	 viewBox="0 0 200 200" enable-background="new 0 0 200 200" xml:space="preserve">
<g opacity="0.2">
	<path fill="#F3F0DE" d="M174.6,100.1c12.8-11.7,18-25.8,18.3-26.7c0.8-2.3,0-4.9-2.1-6.4c-0.6-0.4-13.1-8.8-30.5-10.8
		c3.5-17-0.6-31.5-0.9-32.3c-0.7-2.4-2.9-4-5.4-3.9c-0.9,0-15.9,0.6-31,9.2c-7.2-15.8-19-25.1-19.7-25.6c-2-1.5-4.7-1.5-6.7,0
		C96,4.1,84.2,13.4,77,29.2c-15.1-8.6-30.1-9.1-31-9.2c-2.5,0-4.7,1.5-5.4,3.9c-0.3,0.9-4.4,15.3-0.9,32.3
		c-17.4,2-29.9,10.4-30.5,10.8c-2.1,1.4-2.9,4-2.1,6.4c0.3,0.8,5.5,14.9,18.3,26.7c-12.8,11.7-18,25.8-18.3,26.7
		c-0.8,2.3,0,4.9,2.1,6.4c0.6,0.4,13.1,8.8,30.5,10.8c-3.5,17,0.6,31.5,0.9,32.3c0.7,2.3,2.8,3.9,5.2,3.9c0.1,0,0.1,0,0.2,0
		c0.9,0,15.9-0.6,31-9.2c7.2,15.8,19,25.1,19.7,25.6c1,0.8,2.2,1.1,3.3,1.1s2.4-0.4,3.3-1.1c0.7-0.5,12.5-9.8,19.7-25.6
		c15.1,8.6,30.1,9.1,31,9.2c0.1,0,0.1,0,0.2,0c2.4,0,4.6-1.6,5.2-3.9c0.3-0.9,4.4-15.3,0.9-32.3c17.4-2,29.9-10.4,30.5-10.8
		c2.1-1.4,2.9-4,2.1-6.3C192.5,125.9,187.4,111.9,174.6,100.1z M157.1,67c10.3,0.8,18.9,4.5,23.6,6.9c-2.4,4.7-7.2,12.7-15.1,19.4
		c-3.9-2.4-8.2-4.5-13-6.1c-2.4-0.8-4.8-1.4-7.3-1.9c1.7-1.8,3.3-3.7,4.8-5.8C153.2,75.5,155.4,71.2,157.1,67z M155.4,100.1
		c-1.9,0.9-3.9,1.8-6.1,2.5c-4.7,1.5-9.7,2.3-14.7,2.3l0,0c-0.5,0-1.1,0-1.6,0c-3.1-1.9-6.3-3.5-9.4-4.7c3.1-1.3,6.2-2.8,9.4-4.7
		c0.5,0,1.1,0,1.6,0c5.1,0,10,0.8,14.7,2.3C151.4,98.4,153.5,99.2,155.4,100.1z M149.9,31.5c0.9,5.2,1.6,14.6-0.8,24.6
		c-4.8,0.3-9.5,1.2-14.1,2.7c-2.5,0.8-4.8,1.8-7,2.8c0.3-2.4,0.5-4.9,0.5-7.5c0-5.1-0.7-9.8-1.8-14.2
		C135.5,34.4,144.6,32.3,149.9,31.5z M123.9,77c4.1-3.2,8.9-6,14.6-7.8c2.1-0.7,4.2-1.2,6.4-1.6c-1,1.9-2.1,3.7-3.4,5.6
		c-3.5,4.8-7.7,8.6-12,11.5c-3.6,0.3-7.1,0.9-10.3,1.7C120.8,83.5,122.4,80.4,123.9,77z M100,15.3c3.8,3.7,9.9,10.8,13.8,20.3
		c-3.5,2.9-6.8,6.4-9.8,10.5c-1.5,2.1-2.9,4.2-4,6.4c-1.2-2.2-2.5-4.3-4-6.4c-3-4.1-6.3-7.5-9.8-10.5C90.1,26.1,96.2,19,100,15.3z
		 M82.9,47.5c1.5,1.5,2.9,3.2,4.2,5c3.5,4.8,5.8,9.9,7.2,14.9c-0.8,3.6-1.3,7.1-1.6,10.3c-2.2-2.5-4.6-5.1-7.4-7.5
		C83.5,65.4,82.4,60,82.4,54C82.4,51.8,82.6,49.6,82.9,47.5z M80.9,86.3c-3.2-0.8-6.7-1.4-10.4-1.7c-4.3-2.9-8.4-6.6-11.9-11.5
		c-1.3-1.8-2.5-3.7-3.4-5.6c2.2,0.4,4.3,0.9,6.4,1.6c5.6,1.8,10.5,4.6,14.6,7.8C77.6,80.4,79.2,83.5,80.9,86.3z M76.4,100.1
		c-3.1,1.3-6.2,2.8-9.4,4.7c-0.5,0-1.1,0-1.6,0c-5.1,0-10-0.8-14.7-2.3c-2.1-0.7-4.2-1.5-6.1-2.5c1.9-0.9,3.9-1.8,6.1-2.5
		c4.7-1.5,9.7-2.3,14.7-2.3c0.5,0,1.1,0,1.6,0C70.2,97.3,73.4,98.9,76.4,100.1z M50.1,31.5c5.2,0.8,14.3,2.9,23.1,8.3
		c-1.1,4.4-1.8,9.2-1.8,14.2c0,2.6,0.2,5.1,0.5,7.5c-2.2-1-4.5-2-7-2.8c-4.5-1.5-9.2-2.4-14.1-2.7C48.5,46,49.3,36.7,50.1,31.5z
		 M19.3,73.9c4.7-2.4,13.3-6.1,23.6-6.9c1.7,4.2,3.9,8.5,6.9,12.6c1.5,2.1,3.2,4,4.8,5.8c-2.5,0.5-4.9,1.1-7.3,1.9
		c-4.8,1.6-9.1,3.7-13,6.1C26.5,86.7,21.7,78.7,19.3,73.9z M42.9,133.3c-10.3-0.8-18.9-4.5-23.6-6.9c2.4-4.7,7.2-12.7,15.1-19.4
		c3.9,2.4,8.2,4.5,13,6.1c2.4,0.8,4.8,1.4,7.3,1.9c-1.7,1.8-3.3,3.7-4.8,5.8C46.8,124.8,44.6,129,42.9,133.3z M50.1,168.8
		c-0.9-5.2-1.7-14.5,0.8-24.6c4.8-0.3,9.6-1.2,14.1-2.7c2.5-0.8,4.8-1.8,7-2.8c-0.3,2.4-0.5,4.9-0.5,7.5c0,5.1,0.7,9.8,1.8,14.2
		C64.5,165.9,55.4,168,50.1,168.8z M76.1,123.4c-4.1,3.2-8.9,5.9-14.5,7.7c-2.1,0.7-4.2,1.2-6.4,1.6c1-1.9,2.1-3.7,3.5-5.6
		c3.5-4.8,7.7-8.6,12-11.5c3.6-0.3,7.1-0.9,10.3-1.7C79.2,116.8,77.6,119.9,76.1,123.4z M82.4,146.2c0-5.9,1.2-11.4,2.9-16.3
		c2.8-2.4,5.2-4.9,7.4-7.4c0.3,3.3,0.8,6.8,1.6,10.4c-1.4,4.9-3.7,10-7.2,14.8c-1.3,1.8-2.8,3.5-4.2,5
		C82.6,150.7,82.4,148.5,82.4,146.2z M100,185c-3.8-3.7-9.9-10.8-13.8-20.3c3.5-2.9,6.8-6.4,9.8-10.5c1.5-2.1,2.9-4.2,4-6.4
		c1.2,2.2,2.5,4.3,4,6.4c3,4.1,6.3,7.5,9.8,10.5C109.9,174.2,103.8,181.3,100,185z M117.1,152.8c-1.5-1.5-2.9-3.2-4.2-5
		c-3.5-4.8-5.8-9.9-7.2-14.9c0.8-3.6,1.3-7.1,1.6-10.4c2.1,2.5,4.6,5,7.4,7.4c1.8,4.9,2.9,10.3,2.9,16.3
		C117.6,148.5,117.4,150.7,117.1,152.8z M114.7,70.3c-2.8,2.4-5.2,4.9-7.4,7.4c-0.3-3.3-0.7-6.8-1.6-10.3c1.4-5,3.7-10.1,7.2-14.9
		c1.3-1.8,2.8-3.5,4.2-5c0.3,2.1,0.5,4.3,0.5,6.5C117.6,60,116.4,65.4,114.7,70.3z M119.1,114c3.2,0.8,6.7,1.4,10.3,1.7
		c4.3,2.9,8.5,6.6,12,11.5c1.3,1.8,2.5,3.7,3.4,5.6c-2.2-0.4-4.3-0.9-6.4-1.6c-5.6-1.8-10.5-4.6-14.6-7.8
		C122.4,119.9,120.8,116.8,119.1,114z M149.9,168.8c-5.2-0.8-14.3-2.9-23.1-8.3c1.1-4.4,1.8-9.2,1.8-14.2c0-2.6-0.2-5.1-0.5-7.5
		c2.2,1,4.5,2,7,2.8c4.5,1.5,9.2,2.4,14.1,2.7C151.5,154.2,150.7,163.5,149.9,168.8z M157.1,133.3c-1.7-4.2-3.9-8.5-6.9-12.6
		c-1.5-2.1-3.2-4-4.8-5.8c2.5-0.5,4.9-1.1,7.3-1.9c4.8-1.6,9.1-3.7,13-6.1c7.9,6.7,12.7,14.7,15.1,19.4
		C176,128.8,167.4,132.5,157.1,133.3z"/>
</g>
</svg>
