<?xml version="1.0" encoding="UTF-8" standalone="no"?>
<svg width="288px" height="288px" viewBox="0 0 288 288" version="1.1" xmlns="http://www.w3.org/2000/svg" xmlns:xlink="http://www.w3.org/1999/xlink" xmlns:sketch="http://www.bohemiancoding.com/sketch/ns">
    <!-- Generator: Sketch 3.3.2 (12043) - http://www.bohemiancoding.com/sketch -->
    <title>favicon</title>
    <desc>Created with Sketch.</desc>
    <defs></defs>
    <g id="Page-1" stroke="none" stroke-width="1" fill="none" fill-rule="evenodd" sketch:type="MSPage">
        <g id="favicon" sketch:type="MSArtboardGroup" fill="#8AC591">
            <path d="M251.962866,144.136285 C270.512702,127.127972 277.932637,106.630775 278.369104,105.758554 C279.678504,102.487725 278.369104,98.5627296 275.313836,96.600232 C274.440903,96.1641214 256.545767,83.9530253 231.230696,81.1183066 C236.250064,56.4780592 230.357763,35.5447516 229.921296,34.2364199 C228.830129,30.7475353 225.774862,28.5669824 222.064895,28.5669824 C220.755495,28.5669824 199.150392,29.2211483 177.327055,41.8683549 C166.851853,18.9725498 149.829651,5.67117727 148.738484,4.79895612 C145.90145,2.40034796 141.973249,2.40034796 139.136216,4.79895612 C138.045049,5.45312198 121.022846,18.9725498 110.547645,41.8683549 C88.724308,29.4392036 67.1192047,28.5669824 65.8098045,28.5669824 C62.3180706,28.5669824 59.0445701,30.9655906 57.9534033,34.2364199 C57.7351699,35.5447516 51.6246357,56.4780592 56.6440031,81.1183066 C31.3289326,83.9530253 13.4337965,96.1641214 12.560863,96.600232 C9.50559592,98.5627296 8.41442908,102.487725 9.50559592,105.758554 C9.94206265,107.066886 17.3619971,127.346027 35.9118333,144.136285 C17.3619971,161.144597 9.94206265,181.641794 9.50559592,182.514015 C8.19619572,185.784844 9.50559592,189.70984 12.560863,191.672337 C13.4337965,192.108448 31.3289326,204.319544 56.6440031,207.154263 C51.6246357,231.79451 57.5169366,252.727818 57.9534033,254.036149 C59.0445701,257.306979 62.0998373,259.705587 65.5915711,259.705587 L66.0280379,259.705587 C67.3374381,259.705587 88.9425414,258.833366 110.765878,246.404214 C121.24108,269.300019 138.263282,282.601392 139.354449,283.473613 C140.882083,284.563889 142.409716,285 144.155583,285 C145.90145,285 147.429084,284.563889 148.956717,283.473613 C150.047884,282.601392 167.070087,269.300019 177.545288,246.404214 C199.368625,258.833366 220.973728,259.705587 222.283128,259.705587 L222.501362,259.705587 C225.993096,259.705587 229.048363,257.306979 230.13953,254.036149 C230.357763,252.727818 236.468297,231.79451 231.44893,207.154263 C256.764,204.319544 274.659136,192.108448 275.53207,191.672337 C278.587337,189.70984 279.678504,185.784844 278.587337,182.514015 C277.932637,181.205683 270.730936,160.926542 251.962866,144.136285 L251.962866,144.136285 Z M226.866029,96.3821767 C241.705898,97.4724531 254.1452,102.70578 260.910434,106.41272 C257.636934,113.390489 250.435233,124.729364 239.305331,134.323797 C233.631263,130.834912 227.520729,127.782138 220.537261,125.38353 C217.045528,124.293253 213.772027,123.421032 209.843826,122.766866 C212.462627,120.150203 214.644961,117.53354 216.609061,114.480766 C221.191962,108.593273 224.465462,102.487725 226.866029,96.3821767 L226.866029,96.3821767 Z M224.247229,144.136285 C221.410195,145.444616 218.573161,146.752948 215.517894,147.625169 C208.75266,150.023777 201.550959,150.895998 194.131024,150.895998 L194.131024,150.895998 L191.730457,150.895998 C187.147556,148.06128 182.564656,145.880727 178.199988,143.918229 C182.564656,142.173787 187.147556,139.775179 191.730457,136.94046 L194.131024,136.94046 C201.550959,136.94046 208.534426,138.030737 215.517894,140.211289 C218.573161,141.301566 221.410195,142.609898 224.247229,144.136285 L224.247229,144.136285 Z M216.390827,44.9211289 C217.700228,52.553064 218.791395,66.0724918 215.299661,80.2460854 C208.534426,80.682196 201.550959,81.9905277 195.003958,84.1710806 C191.512224,85.4794123 188.238723,86.7877441 184.746989,88.3141311 C185.183456,84.8252465 185.619923,81.1183066 185.619923,77.4113667 C185.619923,69.997487 184.528756,63.2377731 183.001122,56.9141697 C195.658658,49.2822347 208.75266,46.0114054 216.390827,44.9211289 L216.390827,44.9211289 Z M178.636455,110.55577 C184.528756,105.976609 191.512224,101.833559 199.805092,99.4349507 C202.860359,98.3446743 205.915626,97.6905084 208.970893,97.0363425 C207.443259,99.8710613 205.915626,102.269669 203.951526,105.104388 C198.932158,112.082157 193.039857,117.53354 186.71109,121.67659 C181.473489,122.112701 176.454121,122.984922 171.652987,124.075198 C174.271788,119.932148 176.672355,115.352987 178.636455,110.55577 L178.636455,110.55577 Z M144.373816,21.5892132 C149.611417,26.8225401 158.558985,37.0711386 164.233053,50.8086217 C159.213685,55.1697274 154.194318,59.9669437 150.047884,65.8544365 C147.647317,68.9072105 145.90145,71.9599845 144.155583,75.0127586 C142.409716,71.9599845 140.663849,68.9072105 138.263282,65.8544365 C133.898615,59.9669437 129.097481,54.9516721 124.078113,50.8086217 C130.188648,37.0711386 138.917982,26.8225401 144.373816,21.5892132 L144.373816,21.5892132 Z M121.459313,126.037696 L135.208015,126.037696 L144.373816,141.301566 L153.757851,126.037696 L167.28832,126.037696 L150.266117,152.640441 L150.266117,170.302919 L138.481516,170.302919 L138.481516,153.076551 L121.459313,126.037696 L121.459313,126.037696 Z M119.713446,68.0349894 C121.677546,70.4335975 123.85988,72.6141504 125.82398,75.2308138 C130.843348,82.208583 134.335082,89.4044075 136.299182,96.600232 C134.989782,101.615504 134.335082,106.84883 133.898615,111.646047 C130.843348,108.157162 127.351614,104.232167 123.20518,100.961338 C120.58638,93.7655132 119.058746,86.1335782 119.058746,77.4113667 C118.840513,74.1405374 119.058746,71.0877634 119.713446,68.0349894 L119.713446,68.0349894 Z M116.876412,124.075198 C112.293512,122.984922 107.274144,122.112701 101.81831,121.67659 C95.7077757,117.53354 89.5972415,112.082157 84.577874,105.104388 C82.8320071,102.487725 81.0861402,99.8710613 79.5585066,97.0363425 C82.6137737,97.4724531 85.6690409,98.3446743 88.724308,99.4349507 C96.7989426,102.051614 103.78241,105.976609 109.892945,110.55577 C112.075278,115.352987 114.257612,119.932148 116.876412,124.075198 L116.876412,124.075198 Z M110.111178,144.136285 C105.746511,145.880727 101.16361,148.279335 96.5807092,151.114054 L94.1801422,151.114054 C86.7602077,151.114054 79.77674,150.023777 72.7932722,147.843224 C69.7380051,146.752948 66.682738,145.444616 64.0639376,144.35434 C66.9009713,143.046008 69.7380051,141.737676 72.7932722,140.865455 C79.5585066,138.466847 86.7602077,137.594626 94.1801422,137.594626 L96.5807092,137.594626 C101.381843,139.993234 105.964744,142.173787 110.111178,144.136285 L110.111178,144.136285 Z M72.3568055,44.9211289 C79.9949733,46.0114054 92.870742,49.0641794 105.746511,56.9141697 C104.000644,63.2377731 103.12771,70.2155422 103.12771,77.4113667 C103.12771,81.3363619 103.345944,84.8252465 104.000644,88.3141311 C100.727143,86.7877441 97.4536427,85.4794123 93.7436754,84.1710806 C87.1966744,82.208583 80.2132067,80.9002513 73.4479723,80.2460854 C69.9562385,65.8544365 71.0474053,52.553064 72.3568055,44.9211289 L72.3568055,44.9211289 Z M27.6189653,106.194665 C34.3841997,102.70578 47.041735,97.2543978 61.6633705,96.1641214 C64.2821709,102.269669 67.3374381,108.375217 71.7021054,114.26271 C74.1026724,117.315484 76.2850061,120.150203 78.4673398,122.548811 C74.9756059,123.202977 71.2656387,124.075198 67.7739048,125.165475 C61.0086704,127.564083 54.4616694,130.398801 49.0058353,134.105741 C38.0941669,124.511309 31.1106992,113.172434 27.6189653,106.194665 L27.6189653,106.194665 Z M61.8816039,191.890392 C47.041735,190.800116 34.6024331,185.566789 27.8371987,181.859849 C31.1106992,174.88208 38.3124003,163.543205 49.442302,153.948772 C55.1163695,157.437657 61.2269038,160.490431 68.2103715,162.889039 C71.7021054,163.979316 75.4120726,164.851537 78.9038065,165.505703 C76.2850061,168.122366 74.1026724,170.73903 72.1385721,173.791804 C67.3374381,179.461241 64.0639376,185.784844 61.8816039,191.890392 L61.8816039,191.890392 Z M72.3568055,243.133385 C71.0474053,235.50145 69.7380051,222.200077 73.4479723,207.808428 C80.2132067,207.372318 87.1966744,206.063986 93.7436754,203.883433 C97.2354093,202.575101 100.50891,201.26677 104.000644,199.740383 C103.564177,203.229267 103.12771,206.936207 103.12771,210.643147 C103.12771,218.057027 104.218877,224.816741 105.746511,231.140344 C92.870742,238.990334 79.9949733,242.043108 72.3568055,243.133385 L72.3568055,243.133385 Z M109.674711,177.498743 C103.78241,182.077905 97.0171759,186.220955 88.5060746,188.619563 C85.4508075,189.70984 82.3955404,190.364005 79.3402732,191.018171 C80.8679068,188.183453 82.3955404,185.784844 84.3596407,182.950126 C89.3790081,175.972356 95.271309,170.520974 101.600077,166.377924 C106.837677,165.941813 111.857045,165.069592 116.658179,163.979316 C114.257612,168.122366 112.075278,172.701527 109.674711,177.498743 L109.674711,177.498743 Z M118.840513,210.643147 C118.840513,201.920936 120.58638,194.070945 123.20518,187.311231 C127.351614,183.822347 130.843348,180.115407 133.898615,176.626522 C134.116848,181.423739 134.989782,186.657066 136.299182,191.672337 C134.335082,198.868162 131.061581,206.282041 125.82398,213.041755 C123.85988,215.658419 121.677546,218.057027 119.713446,220.23758 C119.058746,216.96675 118.840513,213.913976 118.840513,210.643147 L118.840513,210.643147 Z M144.373816,266.465301 C139.136216,261.231974 130.188648,250.983375 124.51458,237.245892 C129.533948,232.884786 134.553315,228.08757 138.699749,222.200077 C141.100316,219.147303 142.846183,216.094529 144.59205,213.041755 C146.337917,216.094529 148.083784,219.147303 150.484351,222.200077 C154.849018,228.08757 159.650152,233.102842 164.66952,237.245892 C158.558985,250.983375 149.611417,261.231974 144.373816,266.465301 L144.373816,266.465301 Z M169.034187,220.019524 C167.070087,217.620916 164.887753,215.440363 162.923653,212.8237 C157.904285,205.845931 154.412551,198.650106 152.448451,191.454282 C153.757851,186.43901 154.412551,181.205683 154.849018,176.408467 C157.904285,179.897352 161.396019,183.822347 165.542453,187.093176 C168.161253,194.289001 169.90712,202.138991 169.90712,210.425092 C169.90712,213.913976 169.470654,216.96675 169.034187,220.019524 L169.034187,220.019524 Z M165.542453,100.961338 C161.396019,104.450222 157.904285,108.157162 154.849018,111.646047 C154.630785,106.84883 153.757851,102.051614 152.448451,96.600232 C154.412551,89.4044075 157.686052,81.9905277 162.923653,75.2308138 C164.887753,72.6141504 167.070087,70.2155422 169.034187,68.0349894 C169.470654,71.0877634 169.90712,74.1405374 169.90712,77.4113667 C169.90712,86.1335782 167.94302,93.9835685 165.542453,100.961338 L165.542453,100.961338 Z M171.871221,163.979316 C176.454121,165.069592 181.473489,165.941813 186.929323,166.377924 C193.039857,170.520974 199.150392,175.972356 204.169759,182.950126 C206.133859,185.566789 207.661493,188.183453 209.189126,191.018171 C206.133859,190.582061 203.078592,189.70984 200.023325,188.619563 C191.94869,186.0029 184.965223,182.077905 178.854688,177.498743 C176.672355,172.701527 174.271788,168.122366 171.871221,163.979316 L171.871221,163.979316 Z M216.390827,243.133385 C208.75266,242.043108 195.876891,238.990334 183.001122,231.140344 C184.528756,224.816741 185.619923,217.838972 185.619923,210.643147 C185.619923,206.718152 185.401689,203.229267 184.746989,199.740383 C188.02049,201.26677 191.29399,202.575101 195.003958,203.883433 C201.550959,205.845931 208.316193,207.154263 215.299661,207.808428 C218.573161,222.200077 217.700228,235.719505 216.390827,243.133385 L216.390827,243.133385 Z M226.866029,191.890392 C224.247229,185.784844 221.191962,179.679296 216.827294,173.791804 C214.426727,170.73903 212.244394,167.904311 210.06206,165.505703 C213.553794,164.851537 217.263761,163.979316 220.755495,162.889039 C227.520729,160.490431 234.06773,157.655712 239.523564,153.948772 C250.871699,163.543205 257.855167,175.100135 261.346901,181.859849 C254.1452,185.348734 241.924131,190.800116 226.866029,191.890392 L226.866029,191.890392 Z" id="Shape" sketch:type="MSShapeGroup"></path>
        </g>
    </g>
</svg>