<?xml version="1.0" encoding="utf-8"?>
<!-- Generator: Adobe Illustrator 18.1.1, SVG Export Plug-In . SVG Version: 6.00 Build 0)  -->
<svg version="1.1" id="Calque_1" xmlns="http://www.w3.org/2000/svg" xmlns:xlink="http://www.w3.org/1999/xlink" x="0px" y="0px"
	 viewBox="0 0 200 200" enable-background="new 0 0 200 200" xml:space="preserve">
<g>
	<path fill="#FFFFFF" d="M149.2,78.6c8.5-7.8,11.9-17.2,12.1-17.6c0.6-1.5,0-3.3-1.4-4.2c-0.4-0.2-8.6-5.8-20.2-7.1
		c2.3-11.3-0.4-20.9-0.6-21.5c-0.5-1.6-1.9-2.6-3.6-2.6c-0.6,0-10.5,0.3-20.5,6.1c-4.8-10.5-12.6-16.6-13.1-17
		c-1.3-1.1-3.1-1.1-4.4,0c-0.5,0.3-8.3,6.5-13.1,17c-10-5.7-19.9-6.1-20.5-6.1c-1.6,0-3.1,1.1-3.6,2.6c-0.1,0.6-2.9,10.2-0.6,21.5
		c-11.6,1.3-19.8,6.9-20.2,7.1c-1.4,0.9-1.9,2.7-1.4,4.2c0.2,0.6,3.6,9.9,12.1,17.6c-8.5,7.8-11.9,17.2-12.1,17.6
		c-0.6,1.5,0,3.3,1.4,4.2c0.4,0.2,8.6,5.8,20.2,7.1c-2.3,11.3,0.4,20.9,0.6,21.5c0.5,1.5,1.9,2.6,3.5,2.6H64
		c0.6,0,10.5-0.4,20.5-6.1c4.8,10.5,12.6,16.6,13.1,17c0.7,0.5,1.4,0.7,2.2,0.7c0.8,0,1.5-0.2,2.2-0.7c0.5-0.4,8.3-6.5,13.1-17
		c10,5.7,19.9,6.1,20.5,6.1h0.1c1.6,0,3-1.1,3.5-2.6c0.1-0.6,2.9-10.2,0.6-21.5c11.6-1.3,19.8-6.9,20.2-7.1c1.4-0.9,1.9-2.7,1.4-4.2
		C161.1,95.6,157.8,86.3,149.2,78.6z M137.7,56.7c6.8,0.5,12.5,2.9,15.6,4.6c-1.5,3.2-4.8,8.4-9.9,12.8c-2.6-1.6-5.4-3-8.6-4.1
		c-1.6-0.5-3.1-0.9-4.9-1.2c1.2-1.2,2.2-2.4,3.1-3.8C135.1,62.3,136.6,59.5,137.7,56.7z M136.5,78.6c-1.3,0.6-2.6,1.2-4,1.6
		c-3.1,1.1-6.4,1.5-9.8,1.5l0,0c-0.4,0-0.7,0-1.1,0c-2.1-1.3-4.2-2.3-6.2-3.2c2-0.8,4.1-1.9,6.2-3.2c0.4,0,0.7,0,1.1,0
		c3.4,0,6.6,0.5,9.8,1.5C133.9,77.3,135.2,77.9,136.5,78.6z M132.9,33.1c0.6,3.5,1.1,9.7-0.5,16.2c-3.1,0.2-6.3,0.8-9.3,1.8
		c-1.6,0.6-3.1,1.2-4.7,1.9c0.2-1.6,0.4-3.3,0.4-5c0-3.4-0.5-6.5-1.2-9.4C123.4,35.1,129.4,33.6,132.9,33.1z M115.6,63.2
		c2.7-2.1,5.9-4,9.7-5.1c1.4-0.5,2.8-0.8,4.2-1.1c-0.7,1.3-1.4,2.4-2.3,3.7c-2.3,3.2-5,5.7-7.9,7.6c-2.4,0.2-4.7,0.6-6.9,1.1
		C113.6,67.5,114.7,65.4,115.6,63.2z M99.9,22.4c2.4,2.4,6.5,7.1,9.1,13.4c-2.3,2-4.6,4.2-6.5,6.9c-1.1,1.4-1.9,2.8-2.7,4.2
		c-0.8-1.4-1.6-2.8-2.7-4.2c-2-2.7-4.2-5-6.5-6.9C93.4,29.5,97.4,24.8,99.9,22.4z M89.4,70.3h6.3l4.2,7l4.3-7h6.2l-7.8,12.2v8.1
		h-5.4v-7.9L89.4,70.3z M88.6,43.7c0.9,1.1,1.9,2.1,2.8,3.3c2.3,3.2,3.9,6.5,4.8,9.8c-0.6,2.3-0.9,4.7-1.1,6.9
		c-1.4-1.6-3-3.4-4.9-4.9C89,55.5,88.3,52,88.3,48C88.2,46.5,88.3,45.1,88.6,43.7z M87.3,69.4c-2.1-0.5-4.4-0.9-6.9-1.1
		c-2.8-1.9-5.6-4.4-7.9-7.6c-0.8-1.2-1.6-2.4-2.3-3.7c1.4,0.2,2.8,0.6,4.2,1.1c3.7,1.2,6.9,3,9.7,5.1C85.1,65.4,86.1,67.5,87.3,69.4
		z M84.2,78.6c-2,0.8-4.1,1.9-6.2,3.2c-0.4,0-0.7,0-1.1,0c-3.4,0-6.6-0.5-9.8-1.5c-1.4-0.5-2.8-1.1-4-1.6c1.3-0.6,2.6-1.2,4-1.6
		c3.1-1.1,6.4-1.5,9.8-1.5c0.4,0,0.7,0,1.1,0C80.2,76.7,82.3,77.7,84.2,78.6z M66.9,33.1c3.5,0.5,9.4,1.9,15.3,5.5
		C81.4,41.5,81,44.7,81,48c0,1.8,0.1,3.4,0.4,5c-1.5-0.7-3-1.3-4.7-1.9c-3-0.9-6.2-1.5-9.3-1.8C65.8,42.7,66.3,36.6,66.9,33.1z
		 M46.4,61.2c3.1-1.6,8.9-4.1,15.6-4.6c1.2,2.8,2.6,5.6,4.6,8.3c1.1,1.4,2.1,2.7,3.1,3.8c-1.6,0.3-3.3,0.7-4.9,1.2
		c-3.1,1.1-6.1,2.4-8.6,4.1C51.2,69.6,48,64.4,46.4,61.2z M62.1,100.5c-6.8-0.5-12.5-2.9-15.6-4.6c1.5-3.2,4.8-8.4,9.9-12.8
		c2.6,1.6,5.4,3,8.6,4.1c1.6,0.5,3.3,0.9,4.9,1.2c-1.2,1.2-2.2,2.4-3.1,3.8C64.6,94.8,63.1,97.7,62.1,100.5z M66.9,124
		c-0.6-3.5-1.2-9.6,0.5-16.2c3.1-0.2,6.3-0.8,9.3-1.8c1.6-0.6,3.1-1.2,4.7-1.9c-0.2,1.6-0.4,3.3-0.4,5c0,3.4,0.5,6.5,1.2,9.4
		C76.3,122.1,70.4,123.5,66.9,124z M84,93.9c-2.7,2.1-5.8,4-9.7,5.1c-1.4,0.5-2.8,0.8-4.2,1.1c0.7-1.3,1.4-2.4,2.3-3.7
		c2.3-3.2,5-5.7,7.9-7.6c2.4-0.2,4.7-0.6,6.9-1.1C86.1,89.6,85.1,91.7,84,93.9z M88.2,109.1c0-4,0.8-7.6,2-10.7
		c1.9-1.6,3.5-3.3,4.9-4.9c0.1,2.2,0.5,4.6,1.1,6.9c-0.9,3.3-2.4,6.7-4.8,9.8c-0.9,1.2-1.9,2.3-2.8,3.3
		C88.3,112,88.2,110.6,88.2,109.1z M99.9,134.7c-2.4-2.4-6.5-7.1-9.1-13.4c2.3-2,4.6-4.2,6.5-6.9c1.1-1.4,1.9-2.8,2.7-4.2
		c0.8,1.4,1.6,2.8,2.7,4.2c2,2.7,4.2,5,6.5,6.9C106.4,127.6,102.3,132.3,99.9,134.7z M111.2,113.4c-0.9-1.1-1.9-2.1-2.8-3.3
		c-2.3-3.2-3.9-6.5-4.8-9.8c0.6-2.3,0.9-4.7,1.1-6.9c1.4,1.6,3,3.4,4.9,4.9c1.2,3.3,2,6.9,2,10.7C111.6,110.6,111.4,112,111.2,113.4
		z M109.6,58.8c-1.9,1.6-3.5,3.3-4.9,4.9c-0.1-2.2-0.5-4.4-1.1-6.9c0.9-3.3,2.4-6.7,4.8-9.8c0.9-1.2,1.9-2.3,2.8-3.3
		c0.2,1.4,0.4,2.8,0.4,4.3C111.6,52,110.7,55.6,109.6,58.8z M112.5,87.7c2.1,0.5,4.4,0.9,6.9,1.1c2.8,1.9,5.6,4.4,7.9,7.6
		c0.9,1.2,1.6,2.4,2.3,3.7c-1.4-0.2-2.8-0.6-4.2-1.1c-3.7-1.2-6.9-3-9.7-5.1C114.7,91.7,113.6,89.6,112.5,87.7z M132.9,124
		c-3.5-0.5-9.4-1.9-15.3-5.5c0.7-2.9,1.2-6.1,1.2-9.4c0-1.8-0.1-3.4-0.4-5c1.5,0.7,3,1.3,4.7,1.9c3,0.9,6.1,1.5,9.3,1.8
		C133.9,114.4,133.5,120.6,132.9,124z M137.7,100.5c-1.2-2.8-2.6-5.6-4.6-8.3c-1.1-1.4-2.1-2.7-3.1-3.8c1.6-0.3,3.3-0.7,4.9-1.2
		c3.1-1.1,6.1-2.4,8.6-4.1c5.2,4.4,8.4,9.7,10,12.8C150.2,97.5,144.6,100,137.7,100.5z"/>
	<g>
		<path fill="#FFFFFF" d="M32.3,172.5c4.6,0.9,6.6,2.7,6.6,5.8c0,3.5-2.9,5.8-7,5.8c-3.3,0-5.8-1.1-8.3-3.3l1.4-1.6
			c2.1,1.9,4.2,2.9,7,2.9c2.7,0,4.6-1.4,4.6-3.5c0-1.9-1.1-3-5.2-3.9c-4.7-1.1-6.9-2.6-6.9-5.9c0-3.3,2.8-5.6,6.6-5.6
			c2.9,0,5.1,0.8,7.1,2.4l-1.3,1.8c-1.9-1.5-3.7-2.2-5.8-2.2c-2.7,0-4.3,1.4-4.3,3.3C26.9,170.4,27.9,171.5,32.3,172.5z"/>
		<path fill="#FFFFFF" d="M52.2,183.7h-2.3v-18.3h-6.9v-2.1h16v2.1H52v18.3H52.2z"/>
		<path fill="#FFFFFF" d="M81.2,175.1c0,5.9-3.4,9-8.5,9c-5,0-8.5-3-8.5-8.9v-11.9h2.3V175c0,4.4,2.3,6.9,6.2,6.9
			c3.7,0,6.2-2.2,6.2-6.8v-11.9h2.3V175.1z"/>
		<path fill="#FFFFFF" d="M94.3,183.7h-7.1v-20.4h7.1c6.4,0,10.9,4.4,10.9,10.1C105.1,179.3,100.7,183.7,94.3,183.7z M94.3,165.5
			h-4.8v16.1h4.8c5.1,0,8.4-3.5,8.4-8.1C102.8,169,99.5,165.5,94.3,165.5z"/>
		<path fill="#FFFFFF" d="M113.8,163.4v20.4h-2.3v-20.4H113.8z"/>
		<path fill="#FFFFFF" d="M131.1,184.1c-6.2,0-10.4-4.9-10.4-10.5c0-5.6,4.2-10.6,10.4-10.6c6.2,0,10.4,4.9,10.4,10.5
			C141.5,179.2,137.3,184.1,131.1,184.1z M131.1,165.2c-4.7,0-7.9,3.7-7.9,8.4c0,4.7,3.4,8.4,8.1,8.4c4.7,0,7.9-3.7,7.9-8.4
			C139.2,168.9,135.8,165.2,131.1,165.2z"/>
		<path fill="#FFFFFF" d="M162.9,176.1l-7.7-12.7h6.4l4.2,7.5l4.2-7.5h6.3l-7.7,12.7v7.7h-5.7V176.1z"/>
	</g>
</g>
</svg>
