<?xml version="1.0" encoding="utf-8"?>
<!-- Generator: Adobe Illustrator 19.0.0, SVG Export Plug-In . SVG Version: 6.00 Build 0)  -->
<!DOCTYPE svg PUBLIC "-//W3C//DTD SVG 1.1//EN" "http://www.w3.org/Graphics/SVG/1.1/DTD/svg11.dtd">
<svg version="1.1" id="Calque_1" xmlns="http://www.w3.org/2000/svg" xmlns:xlink="http://www.w3.org/1999/xlink" x="0px" y="0px"
	 viewBox="0 0 200 200" enable-background="new 0 0 200 200" xml:space="preserve">
<g id="XMLID_79_">
	<g id="XMLID_104_">
		<path id="XMLID_206_" fill="#424540" d="M9.2,36.1v17.5H8.3L2.9,38.5v15.1H2V36.1h0.9l5.5,15.1V36.1H9.2z"/>
		<path id="XMLID_203_" fill="#424540" d="M18.5,46.5c-0.2,0-0.4,0.2-0.8,0.3c-0.4,0.2-0.8,0.3-1.2,0.5c-0.4,0.2-0.8,0.3-1.2,0.5
			c-0.4,0.2-0.7,0.3-0.9,0.3v2.2c0,0.4,0.1,0.7,0.2,1c0.1,0.3,0.3,0.6,0.6,0.8c0.2,0.2,0.5,0.4,0.8,0.6c0.3,0.1,0.7,0.2,1,0.2
			c0.4,0,0.7-0.1,1-0.2c0.3-0.1,0.6-0.3,0.8-0.6s0.4-0.5,0.6-0.8c0.1-0.3,0.2-0.7,0.2-1h0.9c0,0.5-0.1,0.9-0.3,1.4
			c-0.2,0.4-0.4,0.8-0.7,1.1c-0.3,0.3-0.7,0.6-1.1,0.7c-0.4,0.2-0.9,0.3-1.4,0.3s-0.9-0.1-1.4-0.3c-0.4-0.2-0.8-0.4-1.1-0.7
			c-0.3-0.3-0.6-0.7-0.7-1.1c-0.2-0.4-0.3-0.9-0.3-1.4v-6.1c0-0.5,0.1-0.9,0.3-1.4c0.2-0.4,0.4-0.8,0.7-1.1c0.3-0.3,0.7-0.6,1.1-0.7
			s0.9-0.3,1.4-0.3s0.9,0.1,1.4,0.3c0.4,0.2,0.8,0.4,1.1,0.7c0.3,0.3,0.6,0.7,0.7,1.1c0.2,0.4,0.3,0.9,0.3,1.3v0
			C20.5,45.3,19.9,46,18.5,46.5z M17,41.6c-0.4,0-0.7,0.1-1,0.2c-0.3,0.1-0.6,0.3-0.8,0.6c-0.2,0.2-0.4,0.5-0.6,0.8
			c-0.1,0.3-0.2,0.7-0.2,1v3c0.3-0.1,0.6-0.2,0.9-0.4c0.4-0.2,0.8-0.3,1.1-0.4c0.4-0.1,0.7-0.3,1.1-0.4c0.3-0.1,0.5-0.2,0.7-0.3
			c0.3-0.1,0.6-0.3,0.9-0.5c0.3-0.2,0.5-0.6,0.5-1c0-0.4-0.1-0.7-0.2-1c-0.1-0.3-0.3-0.6-0.6-0.8c-0.2-0.2-0.5-0.4-0.8-0.6
			C17.8,41.7,17.4,41.6,17,41.6z"/>
		<path id="XMLID_202_" fill="#424540" d="M35,52.9c0.4,0,0.7-0.1,1-0.2c0.3-0.1,0.6-0.3,0.8-0.6c0.2-0.2,0.4-0.5,0.6-0.8
			c0.1-0.3,0.2-0.7,0.2-1h0.9c0,0.5-0.1,0.9-0.3,1.4c-0.2,0.4-0.4,0.8-0.7,1.1c-0.3,0.3-0.7,0.6-1.1,0.7c-0.4,0.2-0.9,0.3-1.4,0.3
			s-0.9-0.1-1.4-0.3c-0.4-0.2-0.8-0.4-1.1-0.7c-0.3-0.3-0.6-0.7-0.7-1.1c-0.2-0.4-0.3-0.9-0.3-1.4v-6.1c0-0.5,0.1-0.9,0.3-1.4
			c0.2-0.4,0.4-0.8,0.7-1.1c0.3-0.3,0.7-0.6,1.1-0.7c0.4-0.2,0.9-0.3,1.4-0.3s0.9,0.1,1.4,0.3c0.4,0.2,0.8,0.4,1.1,0.7
			c0.3,0.3,0.6,0.7,0.7,1.1c0.2,0.4,0.3,0.9,0.3,1.4h-0.9c0-0.4-0.1-0.7-0.2-1c-0.1-0.3-0.3-0.6-0.6-0.8c-0.2-0.2-0.5-0.4-0.8-0.6
			c-0.3-0.1-0.7-0.2-1-0.2c-0.4,0-0.7,0.1-1,0.2c-0.3,0.1-0.6,0.3-0.8,0.6c-0.2,0.2-0.4,0.5-0.6,0.8c-0.1,0.3-0.2,0.7-0.2,1v6.1
			c0,0.4,0.1,0.7,0.2,1c0.1,0.3,0.3,0.6,0.6,0.8c0.2,0.2,0.5,0.4,0.8,0.6C34.3,52.8,34.6,52.9,35,52.9z"/>
		<path id="XMLID_201_" fill="#424540" d="M48.2,40.7v0.9h-1c-0.4,0-0.7,0.1-1,0.2c-0.3,0.1-0.6,0.3-0.8,0.6
			c-0.2,0.2-0.4,0.5-0.6,0.8c-0.1,0.3-0.2,0.7-0.2,1v3v6.4h-0.9v-6.4v-3v-2.5h-0.9v-0.9h0.9h0.9v0.9v0.2c0.6-0.8,1.5-1.2,2.5-1.2
			L48.2,40.7L48.2,40.7z"/>
		<path id="XMLID_198_" fill="#424540" d="M54.9,40.7c0.5,0,0.9,0.1,1.3,0.3c0.4,0.2,0.7,0.4,1,0.7c0.3,0.3,0.5,0.7,0.7,1.1
			c0.2,0.4,0.2,0.9,0.2,1.4v3v3.1v3.3h-0.9v-1.1c-0.3,0.4-0.7,0.6-1.2,0.9c-0.5,0.2-0.9,0.3-1.4,0.3c-0.5,0-0.9-0.1-1.4-0.3
			c-0.4-0.2-0.8-0.4-1.1-0.7c-0.3-0.3-0.6-0.7-0.7-1.1c-0.2-0.4-0.3-0.9-0.3-1.4v-0.7c0-1.1,0.6-1.9,2-2.3c0.2-0.1,0.4-0.2,0.8-0.3
			c0.4-0.1,0.8-0.3,1.2-0.5c0.4-0.2,0.8-0.3,1.2-0.5c0.4-0.2,0.7-0.3,0.9-0.3v-1.4c0-0.7-0.2-1.3-0.7-1.9c-0.4-0.5-1-0.8-1.7-0.8
			c-0.4,0-0.7,0.1-1,0.2c-0.3,0.1-0.6,0.3-0.8,0.6c-0.2,0.2-0.4,0.5-0.6,0.8c-0.1,0.3-0.2,0.7-0.2,1h-0.9c0-0.5,0.1-0.9,0.3-1.4
			c0.2-0.4,0.4-0.8,0.7-1.1c0.3-0.3,0.7-0.6,1.1-0.7C54,40.8,54.5,40.7,54.9,40.7z M57.4,47.2v-0.6c-0.3,0.1-0.6,0.2-0.9,0.4
			c-0.4,0.1-0.8,0.3-1.1,0.4c-0.4,0.2-0.7,0.3-1,0.4c-0.3,0.1-0.5,0.2-0.7,0.3c-0.3,0.1-0.6,0.3-0.9,0.5c-0.3,0.2-0.5,0.6-0.5,1v0.7
			c0,0.4,0.1,0.7,0.2,1c0.1,0.3,0.3,0.6,0.6,0.8c0.2,0.2,0.5,0.4,0.8,0.6c0.3,0.1,0.7,0.2,1,0.2c0.4,0,0.7-0.1,1-0.2
			c0.3-0.1,0.6-0.3,0.8-0.6c0.2-0.2,0.4-0.5,0.6-0.8c0.1-0.3,0.2-0.7,0.2-1L57.4,47.2L57.4,47.2z"/>
		<path id="XMLID_195_" fill="#424540" d="M63.4,40.7h0.9v0.9v11.9h-0.9V41.5h-0.9v-0.9H63.4z M63.6,37.7c-0.2,0-0.3-0.1-0.5-0.2
			c-0.1-0.1-0.2-0.3-0.2-0.5c0-0.2,0.1-0.3,0.2-0.5c0.1-0.1,0.3-0.2,0.5-0.2c0.2,0,0.3,0.1,0.5,0.2c0.1,0.1,0.2,0.3,0.2,0.5
			c0,0.2-0.1,0.3-0.2,0.5C63.9,37.7,63.7,37.7,63.6,37.7z"/>
		<path id="XMLID_194_" fill="#424540" d="M72.6,40.7c0.5,0,0.9,0.1,1.4,0.3c0.4,0.2,0.8,0.4,1.1,0.7c0.3,0.3,0.6,0.7,0.7,1.1
			c0.2,0.4,0.3,0.9,0.3,1.4v3v6.4h-0.9v-6.4v-3c0-0.4-0.1-0.7-0.2-1c-0.1-0.3-0.3-0.6-0.6-0.8c-0.2-0.2-0.5-0.4-0.8-0.6
			c-0.3-0.1-0.7-0.2-1-0.2c-0.4,0-0.7,0.1-1,0.2c-0.3,0.1-0.6,0.3-0.8,0.6c-0.2,0.2-0.4,0.5-0.6,0.8c-0.1,0.3-0.2,0.7-0.2,1v3v6.4
			h-0.9v-6.4v-3v-3.3H70v1.1c0.3-0.4,0.7-0.7,1.2-0.9C71.6,40.8,72.1,40.7,72.6,40.7z"/>
		<path id="XMLID_193_" fill="#424540" d="M84.1,46.8c0.4,0.2,0.8,0.4,1.1,0.6c0.4,0.2,0.7,0.5,1.1,0.7c0.3,0.3,0.6,0.6,0.8,0.9
			c0.2,0.3,0.3,0.7,0.3,1.2c0,0.5-0.1,0.9-0.3,1.4c-0.2,0.4-0.4,0.8-0.7,1.1c-0.3,0.3-0.7,0.6-1.1,0.7c-0.4,0.2-0.9,0.3-1.4,0.3
			c-0.5,0-0.9-0.1-1.4-0.3c-0.4-0.2-0.8-0.4-1.1-0.7c-0.3-0.3-0.6-0.7-0.7-1.1c-0.2-0.4-0.3-0.9-0.3-1.4h0.9c0,0.4,0.1,0.7,0.2,1
			c0.1,0.3,0.3,0.6,0.6,0.8c0.2,0.2,0.5,0.4,0.8,0.6c0.3,0.1,0.7,0.2,1,0.2c0.4,0,0.7-0.1,1-0.2c0.3-0.1,0.6-0.3,0.8-0.6
			s0.4-0.5,0.6-0.8c0.1-0.3,0.2-0.7,0.2-1c0-0.3-0.1-0.6-0.2-0.8c-0.2-0.3-0.4-0.5-0.6-0.7c-0.3-0.2-0.6-0.4-0.9-0.6
			c-0.3-0.2-0.7-0.4-1.1-0.6c-0.4-0.2-0.8-0.4-1.2-0.6c-0.4-0.2-0.7-0.5-1.1-0.7c-0.3-0.3-0.6-0.6-0.8-0.9c-0.2-0.3-0.3-0.7-0.3-1.2
			c0-0.5,0.1-0.9,0.3-1.4c0.2-0.4,0.4-0.8,0.7-1.1c0.3-0.3,0.7-0.6,1.1-0.7c0.4-0.2,0.9-0.3,1.4-0.3c0.5,0,0.9,0.1,1.4,0.3
			c0.4,0.2,0.8,0.4,1.1,0.7c0.3,0.3,0.6,0.7,0.7,1.1c0.2,0.4,0.3,0.9,0.3,1.4h-0.9c0-0.4-0.1-0.7-0.2-1c-0.1-0.3-0.3-0.6-0.6-0.8
			c-0.2-0.2-0.5-0.4-0.8-0.6c-0.3-0.1-0.7-0.2-1-0.2c-0.4,0-0.7,0.1-1,0.2c-0.3,0.1-0.6,0.3-0.8,0.6s-0.4,0.5-0.6,0.8
			c-0.1,0.3-0.2,0.7-0.2,1c0,0.3,0.1,0.6,0.2,0.8c0.2,0.3,0.4,0.5,0.6,0.7c0.3,0.2,0.6,0.4,0.9,0.6C83.4,46.5,83.8,46.7,84.1,46.8z"
			/>
		<path id="XMLID_190_" fill="#424540" d="M101.9,40.7c0.5,0,0.9,0.1,1.4,0.3c0.4,0.2,0.8,0.4,1.1,0.7c0.3,0.3,0.6,0.7,0.7,1.1
			c0.2,0.4,0.3,0.9,0.3,1.4v6.1c0,0.5-0.1,0.9-0.3,1.4c-0.2,0.4-0.4,0.8-0.7,1.1c-0.3,0.3-0.7,0.6-1.1,0.7c-0.4,0.2-0.9,0.3-1.4,0.3
			c-0.5,0-1-0.1-1.4-0.3s-0.8-0.5-1.2-0.9v6.9h-0.9v-9.1v-6.1v-3.3h0.9v1.1c0.3-0.4,0.7-0.7,1.2-0.9
			C100.8,40.8,101.3,40.7,101.9,40.7z M104.5,44.2c0-0.4-0.1-0.7-0.2-1c-0.1-0.3-0.3-0.6-0.6-0.8c-0.2-0.2-0.5-0.4-0.8-0.6
			c-0.3-0.1-0.7-0.2-1-0.2c-0.4,0-0.7,0.1-1,0.2c-0.3,0.1-0.6,0.3-0.8,0.6c-0.2,0.2-0.4,0.5-0.6,0.8c-0.1,0.3-0.2,0.7-0.2,1v6.1
			c0,0.4,0.1,0.7,0.2,1c0.1,0.3,0.3,0.6,0.6,0.8c0.2,0.2,0.5,0.4,0.8,0.6c0.3,0.1,0.7,0.2,1,0.2c0.4,0,0.7-0.1,1-0.2
			c0.3-0.1,0.6-0.3,0.8-0.6c0.2-0.2,0.4-0.5,0.6-0.8c0.1-0.3,0.2-0.7,0.2-1V44.2z"/>
		<path id="XMLID_187_" fill="#424540" d="M113.3,40.7c0.5,0,0.9,0.1,1.3,0.3c0.4,0.2,0.7,0.4,1,0.7c0.3,0.3,0.5,0.7,0.7,1.1
			c0.2,0.4,0.2,0.9,0.2,1.4v3v3.1v3.3h-0.9v-1.1c-0.3,0.4-0.7,0.6-1.2,0.9c-0.5,0.2-0.9,0.3-1.4,0.3c-0.5,0-0.9-0.1-1.4-0.3
			c-0.4-0.2-0.8-0.4-1.1-0.7c-0.3-0.3-0.6-0.7-0.7-1.1c-0.2-0.4-0.3-0.9-0.3-1.4v-0.7c0-1.1,0.6-1.9,2-2.3c0.2-0.1,0.4-0.2,0.8-0.3
			c0.4-0.1,0.8-0.3,1.2-0.5c0.4-0.2,0.8-0.3,1.2-0.5c0.4-0.2,0.7-0.3,0.9-0.3v-1.4c0-0.7-0.2-1.3-0.7-1.9c-0.4-0.5-1-0.8-1.7-0.8
			c-0.4,0-0.7,0.1-1,0.2c-0.3,0.1-0.6,0.3-0.8,0.6c-0.2,0.2-0.4,0.5-0.6,0.8c-0.1,0.3-0.2,0.7-0.2,1h-0.9c0-0.5,0.1-0.9,0.3-1.4
			c0.2-0.4,0.4-0.8,0.7-1.1c0.3-0.3,0.7-0.6,1.1-0.7C112.3,40.8,112.8,40.7,113.3,40.7z M115.7,47.2v-0.6c-0.3,0.1-0.6,0.2-0.9,0.4
			c-0.4,0.1-0.8,0.3-1.1,0.4s-0.7,0.3-1,0.4S112,48,111.9,48c-0.3,0.1-0.6,0.3-0.9,0.5s-0.5,0.6-0.5,1v0.7c0,0.4,0.1,0.7,0.2,1
			c0.1,0.3,0.3,0.6,0.6,0.8c0.2,0.2,0.5,0.4,0.8,0.6c0.3,0.1,0.7,0.2,1,0.2c0.4,0,0.7-0.1,1-0.2c0.3-0.1,0.6-0.3,0.8-0.6
			c0.2-0.2,0.4-0.5,0.6-0.8c0.1-0.3,0.2-0.7,0.2-1L115.7,47.2L115.7,47.2z"/>
		<path id="XMLID_186_" fill="#424540" d="M124.6,46.8c0.4,0.2,0.8,0.4,1.1,0.6c0.4,0.2,0.7,0.5,1.1,0.7c0.3,0.3,0.6,0.6,0.8,0.9
			c0.2,0.3,0.3,0.7,0.3,1.2c0,0.5-0.1,0.9-0.3,1.4c-0.2,0.4-0.4,0.8-0.7,1.1c-0.3,0.3-0.7,0.6-1.1,0.7c-0.4,0.2-0.9,0.3-1.4,0.3
			c-0.5,0-0.9-0.1-1.4-0.3c-0.4-0.2-0.8-0.4-1.1-0.7c-0.3-0.3-0.6-0.7-0.7-1.1c-0.2-0.4-0.3-0.9-0.3-1.4h0.9c0,0.4,0.1,0.7,0.2,1
			c0.1,0.3,0.3,0.6,0.6,0.8c0.2,0.2,0.5,0.4,0.8,0.6c0.3,0.1,0.7,0.2,1,0.2c0.4,0,0.7-0.1,1-0.2c0.3-0.1,0.6-0.3,0.8-0.6
			c0.2-0.2,0.4-0.5,0.6-0.8c0.1-0.3,0.2-0.7,0.2-1c0-0.3-0.1-0.6-0.2-0.8c-0.2-0.3-0.4-0.5-0.6-0.7c-0.3-0.2-0.6-0.4-0.9-0.6
			c-0.3-0.2-0.7-0.4-1.1-0.6c-0.4-0.2-0.8-0.4-1.2-0.6c-0.4-0.2-0.7-0.5-1.1-0.7c-0.3-0.3-0.6-0.6-0.8-0.9c-0.2-0.3-0.3-0.7-0.3-1.2
			c0-0.5,0.1-0.9,0.3-1.4c0.2-0.4,0.4-0.8,0.7-1.1c0.3-0.3,0.7-0.6,1.1-0.7c0.4-0.2,0.9-0.3,1.4-0.3c0.5,0,0.9,0.1,1.4,0.3
			c0.4,0.2,0.8,0.4,1.1,0.7c0.3,0.3,0.6,0.7,0.7,1.1c0.2,0.4,0.3,0.9,0.3,1.4H127c0-0.4-0.1-0.7-0.2-1c-0.1-0.3-0.3-0.6-0.6-0.8
			c-0.2-0.2-0.5-0.4-0.8-0.6c-0.3-0.1-0.7-0.2-1-0.2c-0.4,0-0.7,0.1-1,0.2c-0.3,0.1-0.6,0.3-0.8,0.6c-0.2,0.2-0.4,0.5-0.6,0.8
			c-0.1,0.3-0.2,0.7-0.2,1c0,0.3,0.1,0.6,0.2,0.8c0.2,0.3,0.4,0.5,0.6,0.7c0.3,0.2,0.6,0.4,0.9,0.6
			C123.9,46.5,124.2,46.7,124.6,46.8z"/>
		<path id="XMLID_183_" fill="#424540" d="M8.9,60.3v9.1v6.1v3.3H8.1v-1.1c-0.3,0.4-0.7,0.6-1.2,0.9C6.5,78.9,6,79,5.5,79
			c-0.5,0-0.9-0.1-1.4-0.3C3.7,78.5,3.3,78.3,3,78s-0.6-0.7-0.7-1.1C2.1,76.4,2,76,2,75.5v-6.1c0-0.5,0.1-0.9,0.3-1.4
			C2.4,67.6,2.7,67.3,3,67c0.3-0.3,0.7-0.6,1.1-0.7c0.4-0.2,0.9-0.3,1.4-0.3c0.5,0,1,0.1,1.4,0.3c0.5,0.2,0.8,0.5,1.2,0.9v-6.8H8.9z
			 M5.5,78.1c0.4,0,0.7-0.1,1-0.2c0.3-0.1,0.6-0.3,0.8-0.6c0.2-0.2,0.4-0.5,0.6-0.8c0.1-0.3,0.2-0.7,0.2-1v-6.1c0-0.4-0.1-0.7-0.2-1
			c-0.1-0.3-0.3-0.6-0.6-0.8c-0.2-0.2-0.5-0.4-0.8-0.6c-0.3-0.1-0.7-0.2-1-0.2c-0.4,0-0.7,0.1-1,0.2c-0.3,0.1-0.6,0.3-0.8,0.6
			c-0.2,0.2-0.4,0.5-0.6,0.8c-0.1,0.3-0.2,0.7-0.2,1v6.1c0,0.4,0.1,0.7,0.2,1c0.1,0.3,0.3,0.6,0.6,0.8c0.2,0.2,0.5,0.4,0.8,0.6
			C4.7,78.1,5.1,78.1,5.5,78.1z"/>
		<path id="XMLID_182_" fill="#424540" d="M13.3,65.1v-4.7h0.9v4.7H13.3z"/>
		<path id="XMLID_179_" fill="#424540" d="M23,66c0.5,0,0.9,0.1,1.3,0.3c0.4,0.2,0.7,0.4,1,0.7c0.3,0.3,0.5,0.7,0.7,1.1
			c0.2,0.4,0.2,0.9,0.2,1.4v3v3.1v3.3h-0.9v-1.1c-0.3,0.4-0.7,0.6-1.2,0.9c-0.5,0.2-0.9,0.3-1.4,0.3c-0.5,0-0.9-0.1-1.4-0.3
			c-0.4-0.2-0.8-0.4-1.1-0.7c-0.3-0.3-0.6-0.7-0.7-1.1c-0.2-0.4-0.3-0.9-0.3-1.4v-0.7c0-1.1,0.6-1.9,2-2.3c0.2-0.1,0.4-0.2,0.8-0.3
			c0.4-0.1,0.8-0.3,1.2-0.5c0.4-0.2,0.8-0.3,1.2-0.5c0.4-0.2,0.7-0.3,0.9-0.3v-1.4c0-0.7-0.2-1.3-0.7-1.9c-0.4-0.5-1-0.8-1.7-0.8
			c-0.4,0-0.7,0.1-1,0.2c-0.3,0.1-0.6,0.3-0.8,0.6c-0.2,0.2-0.4,0.5-0.6,0.8c-0.1,0.3-0.2,0.7-0.2,1h-0.9c0-0.5,0.1-0.9,0.3-1.4
			c0.2-0.4,0.4-0.8,0.7-1.1c0.3-0.3,0.7-0.6,1.1-0.7C22.1,66.1,22.5,66,23,66z M25.4,72.5v-0.6c-0.3,0.1-0.6,0.2-0.9,0.4
			c-0.4,0.1-0.8,0.3-1.1,0.4c-0.4,0.2-0.7,0.3-1,0.4c-0.3,0.1-0.5,0.2-0.7,0.3c-0.3,0.1-0.6,0.3-0.9,0.5c-0.3,0.2-0.5,0.6-0.5,1v0.7
			c0,0.4,0.1,0.7,0.2,1c0.1,0.3,0.3,0.6,0.6,0.8c0.2,0.2,0.5,0.4,0.8,0.6c0.3,0.1,0.7,0.2,1,0.2c0.4,0,0.7-0.1,1-0.2
			c0.3-0.1,0.6-0.3,0.8-0.6c0.2-0.2,0.4-0.5,0.6-0.8c0.1-0.3,0.2-0.7,0.2-1L25.4,72.5L25.4,72.5z"/>
		<path id="XMLID_178_" fill="#424540" d="M38.1,66.1l-3.4,12.7h-0.3h-0.5h-0.3l-3.4-12.8H31l3.1,11.7l3.1-11.7L38.1,66.1L38.1,66.1
			z"/>
		<path id="XMLID_175_" fill="#424540" d="M45.3,66c0.5,0,0.9,0.1,1.3,0.3c0.4,0.2,0.7,0.4,1,0.7s0.5,0.7,0.7,1.1
			c0.2,0.4,0.2,0.9,0.2,1.4v3v3.1v3.3h-0.9v-1.1c-0.3,0.4-0.7,0.6-1.2,0.9C46,78.9,45.6,79,45,79c-0.5,0-0.9-0.1-1.4-0.3
			c-0.4-0.2-0.8-0.4-1.1-0.7s-0.6-0.7-0.7-1.1c-0.2-0.4-0.3-0.9-0.3-1.4v-0.7c0-1.1,0.6-1.9,2-2.3c0.2-0.1,0.4-0.2,0.8-0.3
			c0.4-0.1,0.8-0.3,1.2-0.5c0.4-0.2,0.8-0.3,1.2-0.5c0.4-0.2,0.7-0.3,0.9-0.3v-1.4c0-0.7-0.2-1.3-0.7-1.9c-0.4-0.5-1-0.8-1.7-0.8
			c-0.4,0-0.7,0.1-1,0.2c-0.3,0.1-0.6,0.3-0.8,0.6c-0.2,0.2-0.4,0.5-0.6,0.8c-0.1,0.3-0.2,0.7-0.2,1h-0.9c0-0.5,0.1-0.9,0.3-1.4
			c0.2-0.4,0.4-0.8,0.7-1.1c0.3-0.3,0.7-0.6,1.1-0.7C44.3,66.1,44.8,66,45.3,66z M47.7,72.5v-0.6c-0.3,0.1-0.6,0.2-0.9,0.4
			c-0.4,0.1-0.8,0.3-1.1,0.4c-0.4,0.2-0.7,0.3-1,0.4c-0.3,0.1-0.5,0.2-0.7,0.3c-0.3,0.1-0.6,0.3-0.9,0.5s-0.5,0.6-0.5,1v0.7
			c0,0.4,0.1,0.7,0.2,1c0.1,0.3,0.3,0.6,0.6,0.8c0.2,0.2,0.5,0.4,0.8,0.6c0.3,0.1,0.7,0.2,1,0.2c0.4,0,0.7-0.1,1-0.2
			c0.3-0.1,0.6-0.3,0.8-0.6c0.2-0.2,0.4-0.5,0.6-0.8c0.1-0.3,0.2-0.7,0.2-1L47.7,72.5L47.7,72.5z"/>
		<path id="XMLID_174_" fill="#424540" d="M56.4,66c0.5,0,0.9,0.1,1.4,0.3c0.4,0.2,0.8,0.4,1.1,0.7c0.3,0.3,0.6,0.7,0.7,1.1
			c0.2,0.4,0.3,0.9,0.3,1.4v3v6.4H59v-6.4v-3c0-0.4-0.1-0.7-0.2-1c-0.1-0.3-0.3-0.6-0.6-0.8c-0.2-0.2-0.5-0.4-0.8-0.6
			c-0.3-0.1-0.7-0.2-1-0.2c-0.4,0-0.7,0.1-1,0.2c-0.3,0.1-0.6,0.3-0.8,0.6c-0.2,0.2-0.4,0.5-0.6,0.8c-0.1,0.3-0.2,0.7-0.2,1v3v6.4
			h-0.9v-6.4v-3v-3.3h0.9v1.1c0.3-0.4,0.7-0.7,1.2-0.9C55.4,66.1,55.9,66,56.4,66z"/>
		<path id="XMLID_173_" fill="#424540" d="M67.7,78.1c0.4,0,0.7-0.1,1-0.2c0.3-0.1,0.6-0.3,0.8-0.6c0.2-0.2,0.4-0.5,0.6-0.8
			c0.1-0.3,0.2-0.7,0.2-1h0.9c0,0.5-0.1,0.9-0.3,1.4c-0.2,0.4-0.4,0.8-0.7,1.1c-0.3,0.3-0.7,0.6-1.1,0.7c-0.4,0.2-0.9,0.3-1.4,0.3
			c-0.5,0-0.9-0.1-1.4-0.3c-0.4-0.2-0.8-0.4-1.1-0.7s-0.6-0.7-0.7-1.1c-0.2-0.4-0.3-0.9-0.3-1.4v-6.1c0-0.5,0.1-0.9,0.3-1.4
			c0.2-0.4,0.4-0.8,0.7-1.1c0.3-0.3,0.7-0.6,1.1-0.7c0.4-0.2,0.9-0.3,1.4-0.3c0.5,0,0.9,0.1,1.4,0.3c0.4,0.2,0.8,0.4,1.1,0.7
			c0.3,0.3,0.6,0.7,0.7,1.1c0.2,0.4,0.3,0.9,0.3,1.4h-0.9c0-0.4-0.1-0.7-0.2-1c-0.1-0.3-0.3-0.6-0.6-0.8c-0.2-0.2-0.5-0.4-0.8-0.6
			c-0.3-0.1-0.7-0.2-1-0.2c-0.4,0-0.7,0.1-1,0.2c-0.3,0.1-0.6,0.3-0.8,0.6c-0.2,0.2-0.4,0.5-0.6,0.8c-0.1,0.3-0.2,0.7-0.2,1v6.1
			c0,0.4,0.1,0.7,0.2,1c0.1,0.3,0.3,0.6,0.6,0.8c0.2,0.2,0.5,0.4,0.8,0.6C67,78.1,67.4,78.1,67.7,78.1z"/>
		<path id="XMLID_170_" fill="#424540" d="M80.6,71.8c-0.2,0-0.4,0.2-0.8,0.3c-0.4,0.2-0.8,0.3-1.2,0.5c-0.4,0.2-0.8,0.3-1.2,0.5
			c-0.4,0.2-0.7,0.3-0.9,0.3v2.2c0,0.4,0.1,0.7,0.2,1c0.1,0.3,0.3,0.6,0.6,0.8c0.2,0.2,0.5,0.4,0.8,0.6c0.3,0.1,0.7,0.2,1,0.2
			c0.4,0,0.7-0.1,1-0.2c0.3-0.1,0.6-0.3,0.8-0.6c0.2-0.2,0.4-0.5,0.6-0.8c0.1-0.3,0.2-0.7,0.2-1h0.9c0,0.5-0.1,0.9-0.3,1.4
			c-0.2,0.4-0.4,0.8-0.7,1.1c-0.3,0.3-0.7,0.6-1.1,0.7C80,78.9,79.5,79,79,79c-0.5,0-0.9-0.1-1.4-0.3c-0.4-0.2-0.8-0.4-1.1-0.7
			c-0.3-0.3-0.6-0.7-0.7-1.1c-0.2-0.4-0.3-0.9-0.3-1.4v-6.1c0-0.5,0.1-0.9,0.3-1.4c0.2-0.4,0.4-0.8,0.7-1.1c0.3-0.3,0.7-0.6,1.1-0.7
			c0.4-0.2,0.9-0.3,1.4-0.3c0.5,0,0.9,0.1,1.4,0.3c0.4,0.2,0.8,0.4,1.1,0.7s0.6,0.7,0.7,1.1s0.3,0.9,0.3,1.3v0
			C82.5,70.5,81.9,71.3,80.6,71.8z M79.1,66.8c-0.4,0-0.7,0.1-1,0.2c-0.3,0.1-0.6,0.3-0.8,0.6c-0.2,0.2-0.4,0.5-0.6,0.8
			c-0.1,0.3-0.2,0.7-0.2,1v3c0.3-0.1,0.6-0.2,0.9-0.4c0.4-0.2,0.8-0.3,1.1-0.4c0.4-0.1,0.7-0.3,1.1-0.4c0.3-0.1,0.5-0.2,0.7-0.3
			c0.3-0.1,0.6-0.3,0.9-0.5s0.5-0.6,0.5-1c0-0.4-0.1-0.7-0.2-1c-0.1-0.3-0.3-0.6-0.6-0.8c-0.2-0.2-0.5-0.4-0.8-0.6
			C79.8,66.9,79.4,66.8,79.1,66.8z"/>
		<path id="XMLID_169_" fill="#424540" d="M91.6,66v0.9h-1c-0.4,0-0.7,0.1-1,0.2c-0.3,0.1-0.6,0.3-0.8,0.6c-0.2,0.2-0.4,0.5-0.6,0.8
			c-0.1,0.3-0.2,0.7-0.2,1v3v6.4h-0.9v-6.4v-3V67h-0.9v-0.9h0.9H88V67v0.2c0.6-0.8,1.5-1.2,2.5-1.2L91.6,66L91.6,66z"/>
		<path id="XMLID_168_" fill="#424540" d="M102.4,78.8V60.3h0.9v18.5H102.4z"/>
		<path id="XMLID_165_" fill="#424540" d="M112.8,71.8c-0.2,0-0.4,0.2-0.8,0.3c-0.4,0.2-0.8,0.3-1.2,0.5c-0.4,0.2-0.8,0.3-1.2,0.5
			c-0.4,0.2-0.7,0.3-0.9,0.3v2.2c0,0.4,0.1,0.7,0.2,1c0.1,0.3,0.3,0.6,0.6,0.8c0.2,0.2,0.5,0.4,0.8,0.6c0.3,0.1,0.7,0.2,1,0.2
			c0.4,0,0.7-0.1,1-0.2c0.3-0.1,0.6-0.3,0.8-0.6c0.2-0.2,0.4-0.5,0.6-0.8c0.1-0.3,0.2-0.7,0.2-1h0.9c0,0.5-0.1,0.9-0.3,1.4
			c-0.2,0.4-0.4,0.8-0.7,1.1c-0.3,0.3-0.7,0.6-1.1,0.7c-0.4,0.2-0.9,0.3-1.4,0.3c-0.5,0-0.9-0.1-1.4-0.3c-0.4-0.2-0.8-0.4-1.1-0.7
			c-0.3-0.3-0.6-0.7-0.7-1.1c-0.2-0.4-0.3-0.9-0.3-1.4v-6.1c0-0.5,0.1-0.9,0.3-1.4c0.2-0.4,0.4-0.8,0.7-1.1s0.7-0.6,1.1-0.7
			c0.4-0.2,0.9-0.3,1.4-0.3c0.5,0,0.9,0.1,1.4,0.3c0.4,0.2,0.8,0.4,1.1,0.7c0.3,0.3,0.6,0.7,0.7,1.1c0.2,0.4,0.3,0.9,0.3,1.3v0
			C114.8,70.5,114.1,71.3,112.8,71.8z M111.3,66.8c-0.4,0-0.7,0.1-1,0.2c-0.3,0.1-0.6,0.3-0.8,0.6c-0.2,0.2-0.4,0.5-0.6,0.8
			c-0.1,0.3-0.2,0.7-0.2,1v3c0.3-0.1,0.6-0.2,0.9-0.4c0.4-0.2,0.8-0.3,1.1-0.4c0.4-0.1,0.7-0.3,1.1-0.4c0.3-0.1,0.5-0.2,0.7-0.3
			c0.3-0.1,0.6-0.3,0.9-0.5c0.3-0.2,0.5-0.6,0.5-1c0-0.4-0.1-0.7-0.2-1c-0.1-0.3-0.3-0.6-0.6-0.8c-0.2-0.2-0.5-0.4-0.8-0.6
			C112,66.9,111.7,66.8,111.3,66.8z"/>
		<path id="XMLID_164_" fill="#424540" d="M122.7,66c0.5,0,0.9,0.1,1.4,0.3c0.4,0.2,0.8,0.4,1.1,0.7s0.6,0.7,0.7,1.1
			c0.2,0.4,0.3,0.9,0.3,1.4v3v6.4h-0.9v-6.4v-3c0-0.4-0.1-0.7-0.2-1c-0.1-0.3-0.3-0.6-0.6-0.8c-0.2-0.2-0.5-0.4-0.8-0.6
			c-0.3-0.1-0.7-0.2-1-0.2s-0.7,0.1-1,0.2c-0.3,0.1-0.6,0.3-0.8,0.6c-0.2,0.2-0.4,0.5-0.6,0.8c-0.1,0.3-0.2,0.7-0.2,1v3v6.4h-0.9
			v-6.4v-3v-3.3h0.9v1.1c0.3-0.4,0.7-0.7,1.2-0.9C121.7,66.1,122.1,66,122.7,66z"/>
		<path id="XMLID_163_" fill="#424540" d="M131.4,72.5v3.1c0,0.4,0.1,0.7,0.2,1c0.1,0.3,0.3,0.6,0.5,0.8c0.2,0.2,0.5,0.4,0.7,0.6
			c0.3,0.1,0.6,0.2,0.9,0.2V79c-0.4,0-0.8-0.1-1.2-0.3c-0.4-0.2-0.7-0.4-1-0.7c-0.3-0.3-0.5-0.7-0.7-1.1c-0.2-0.4-0.2-0.9-0.2-1.4
			v-3.1v-5.5v-0.9v-3.6h0.9v3.6h2.8v0.9h-2.8L131.4,72.5L131.4,72.5z"/>
		<path id="XMLID_160_" fill="#424540" d="M142.6,71.8c-0.2,0-0.4,0.2-0.8,0.3c-0.4,0.2-0.8,0.3-1.2,0.5c-0.4,0.2-0.8,0.3-1.2,0.5
			c-0.4,0.2-0.7,0.3-0.9,0.3v2.2c0,0.4,0.1,0.7,0.2,1c0.1,0.3,0.3,0.6,0.6,0.8c0.2,0.2,0.5,0.4,0.8,0.6c0.3,0.1,0.7,0.2,1,0.2
			c0.4,0,0.7-0.1,1-0.2c0.3-0.1,0.6-0.3,0.8-0.6c0.2-0.2,0.4-0.5,0.6-0.8c0.1-0.3,0.2-0.7,0.2-1h0.9c0,0.5-0.1,0.9-0.3,1.4
			c-0.2,0.4-0.4,0.8-0.7,1.1c-0.3,0.3-0.7,0.6-1.1,0.7c-0.4,0.2-0.9,0.3-1.4,0.3c-0.5,0-0.9-0.1-1.4-0.3c-0.4-0.2-0.8-0.4-1.1-0.7
			c-0.3-0.3-0.6-0.7-0.7-1.1c-0.2-0.4-0.3-0.9-0.3-1.4v-6.1c0-0.5,0.1-0.9,0.3-1.4c0.2-0.4,0.4-0.8,0.7-1.1c0.3-0.3,0.7-0.6,1.1-0.7
			c0.4-0.2,0.9-0.3,1.4-0.3c0.5,0,0.9,0.1,1.4,0.3c0.4,0.2,0.8,0.4,1.1,0.7c0.3,0.3,0.6,0.7,0.7,1.1s0.3,0.9,0.3,1.3v0
			C144.6,70.5,143.9,71.3,142.6,71.8z M141.1,66.8c-0.4,0-0.7,0.1-1,0.2c-0.3,0.1-0.6,0.3-0.8,0.6c-0.2,0.2-0.4,0.5-0.6,0.8
			c-0.1,0.3-0.2,0.7-0.2,1v3c0.3-0.1,0.6-0.2,0.9-0.4c0.4-0.2,0.8-0.3,1.1-0.4c0.4-0.1,0.7-0.3,1.1-0.4c0.3-0.1,0.5-0.2,0.7-0.3
			c0.3-0.1,0.6-0.3,0.9-0.5c0.3-0.2,0.5-0.6,0.5-1c0-0.4-0.1-0.7-0.2-1c-0.1-0.3-0.3-0.6-0.6-0.8c-0.2-0.2-0.5-0.4-0.8-0.6
			C141.8,66.9,141.5,66.8,141.1,66.8z"/>
		<path id="XMLID_159_" fill="#424540" d="M158.4,66c0.5,0,0.9,0.1,1.4,0.3c0.4,0.2,0.8,0.4,1.1,0.7c0.3,0.3,0.6,0.7,0.7,1.1
			c0.2,0.4,0.3,0.9,0.3,1.4v3v6.4H161v-6.4v-3c0-0.4-0.1-0.7-0.2-1c-0.1-0.3-0.3-0.6-0.6-0.8c-0.2-0.2-0.5-0.4-0.8-0.6
			c-0.3-0.1-0.7-0.2-1-0.2c-0.4,0-0.7,0.1-1,0.2c-0.3,0.1-0.6,0.3-0.8,0.6c-0.2,0.2-0.4,0.5-0.6,0.8c-0.1,0.3-0.2,0.7-0.2,1v3v6.4
			h-0.9v-6.4v-3c0-0.4-0.1-0.7-0.2-1c-0.1-0.3-0.3-0.6-0.6-0.8c-0.2-0.2-0.5-0.4-0.8-0.6c-0.3-0.1-0.7-0.2-1-0.2
			c-0.4,0-0.7,0.1-1,0.2c-0.3,0.1-0.6,0.3-0.8,0.6c-0.2,0.2-0.4,0.5-0.6,0.8c-0.1,0.3-0.2,0.7-0.2,1v3v6.4h-0.9v-6.4v-3v-3.3h0.9
			v1.1c0.3-0.4,0.7-0.7,1.2-0.9s0.9-0.3,1.4-0.3c0.6,0,1.3,0.2,1.8,0.5c0.5,0.3,1,0.8,1.3,1.3c0.3-0.5,0.7-1,1.3-1.3
			C157.2,66.1,157.8,66,158.4,66z"/>
		<path id="XMLID_156_" fill="#424540" d="M171.2,71.8c-0.2,0-0.4,0.2-0.8,0.3c-0.4,0.2-0.8,0.3-1.2,0.5c-0.4,0.2-0.8,0.3-1.2,0.5
			c-0.4,0.2-0.7,0.3-0.9,0.3v2.2c0,0.4,0.1,0.7,0.2,1c0.1,0.3,0.3,0.6,0.6,0.8c0.2,0.2,0.5,0.4,0.8,0.6c0.3,0.1,0.7,0.2,1,0.2
			s0.7-0.1,1-0.2c0.3-0.1,0.6-0.3,0.8-0.6c0.2-0.2,0.4-0.5,0.6-0.8c0.1-0.3,0.2-0.7,0.2-1h0.9c0,0.5-0.1,0.9-0.3,1.4
			c-0.2,0.4-0.4,0.8-0.7,1.1c-0.3,0.3-0.7,0.6-1.1,0.7c-0.4,0.2-0.9,0.3-1.4,0.3c-0.5,0-0.9-0.1-1.4-0.3c-0.4-0.2-0.8-0.4-1.1-0.7
			c-0.3-0.3-0.6-0.7-0.7-1.1c-0.2-0.4-0.3-0.9-0.3-1.4v-6.1c0-0.5,0.1-0.9,0.3-1.4c0.2-0.4,0.4-0.8,0.7-1.1c0.3-0.3,0.7-0.6,1.1-0.7
			c0.4-0.2,0.9-0.3,1.4-0.3c0.5,0,0.9,0.1,1.4,0.3c0.4,0.2,0.8,0.4,1.1,0.7c0.3,0.3,0.6,0.7,0.7,1.1s0.3,0.9,0.3,1.3v0
			C173.2,70.5,172.6,71.3,171.2,71.8z M169.8,66.8c-0.4,0-0.7,0.1-1,0.2c-0.3,0.1-0.6,0.3-0.8,0.6c-0.2,0.2-0.4,0.5-0.6,0.8
			c-0.1,0.3-0.2,0.7-0.2,1v3c0.3-0.1,0.6-0.2,0.9-0.4c0.4-0.2,0.8-0.3,1.1-0.4c0.4-0.1,0.7-0.3,1.1-0.4c0.3-0.1,0.5-0.2,0.7-0.3
			c0.3-0.1,0.6-0.3,0.9-0.5s0.5-0.6,0.5-1c0-0.4-0.1-0.7-0.2-1c-0.1-0.3-0.3-0.6-0.6-0.8c-0.2-0.2-0.5-0.4-0.8-0.6
			C170.4,66.9,170.1,66.8,169.8,66.8z"/>
		<path id="XMLID_155_" fill="#424540" d="M181.1,66c0.5,0,0.9,0.1,1.4,0.3c0.4,0.2,0.8,0.4,1.1,0.7c0.3,0.3,0.6,0.7,0.7,1.1
			c0.2,0.4,0.3,0.9,0.3,1.4v3v6.4h-0.9v-6.4v-3c0-0.4-0.1-0.7-0.2-1c-0.1-0.3-0.3-0.6-0.6-0.8c-0.2-0.2-0.5-0.4-0.8-0.6
			c-0.3-0.1-0.7-0.2-1-0.2s-0.7,0.1-1,0.2c-0.3,0.1-0.6,0.3-0.8,0.6c-0.2,0.2-0.4,0.5-0.6,0.8c-0.1,0.3-0.2,0.7-0.2,1v3v6.4h-0.9
			v-6.4v-3v-3.3h0.9v1.1c0.3-0.4,0.7-0.7,1.2-0.9C180.1,66.1,180.6,66,181.1,66z"/>
		<path id="XMLID_154_" fill="#424540" d="M189.8,72.5v3.1c0,0.4,0.1,0.7,0.2,1c0.1,0.3,0.3,0.6,0.5,0.8c0.2,0.2,0.5,0.4,0.7,0.6
			c0.3,0.1,0.6,0.2,0.9,0.2V79c-0.4,0-0.8-0.1-1.2-0.3c-0.4-0.2-0.7-0.4-1-0.7c-0.3-0.3-0.5-0.7-0.7-1.1c-0.2-0.4-0.2-0.9-0.2-1.4
			v-3.1v-5.5v-0.9v-3.6h0.9v3.6h2.8v0.9h-2.8L189.8,72.5L189.8,72.5z"/>
		<path id="XMLID_153_" fill="#424540" d="M198.3,78.5c0,0.2,0,0.4-0.1,0.6c-0.1,0.2-0.2,0.5-0.3,0.8c-0.2,0.3-0.4,0.6-0.6,0.8
			l-0.5-0.5c0.2-0.2,0.4-0.5,0.5-0.7c0.1-0.2,0.2-0.5,0.3-0.7c0,0-0.1,0-0.1,0c0,0,0,0-0.1,0c-0.3,0-0.5-0.1-0.7-0.3
			c-0.2-0.2-0.3-0.4-0.3-0.7c0-0.2,0.1-0.5,0.3-0.6c0.2-0.2,0.4-0.3,0.7-0.3c0.3,0,0.5,0.1,0.7,0.3c0.2,0.2,0.3,0.4,0.3,0.6v0.1
			C198.3,78.2,198.3,78.3,198.3,78.5z"/>
		<path id="XMLID_152_" fill="#424540" d="M5.5,103.4c0.4,0,0.7-0.1,1-0.2c0.3-0.1,0.6-0.3,0.8-0.6c0.2-0.2,0.4-0.5,0.6-0.8
			c0.1-0.3,0.2-0.7,0.2-1h0.9c0,0.5-0.1,0.9-0.3,1.4c-0.2,0.4-0.4,0.8-0.7,1.1c-0.3,0.3-0.7,0.6-1.1,0.7c-0.4,0.2-0.9,0.3-1.4,0.3
			c-0.5,0-0.9-0.1-1.4-0.3c-0.4-0.2-0.8-0.4-1.1-0.7c-0.3-0.3-0.6-0.7-0.7-1.1c-0.2-0.4-0.3-0.9-0.3-1.4v-6.1c0-0.5,0.1-0.9,0.3-1.4
			c0.2-0.4,0.4-0.8,0.7-1.1s0.7-0.6,1.1-0.7c0.4-0.2,0.9-0.3,1.4-0.3c0.5,0,0.9,0.1,1.4,0.3c0.4,0.2,0.8,0.4,1.1,0.7
			s0.6,0.7,0.7,1.1c0.2,0.4,0.3,0.9,0.3,1.4H8.1c0-0.4-0.1-0.7-0.2-1c-0.1-0.3-0.3-0.6-0.6-0.8c-0.2-0.2-0.5-0.4-0.8-0.6
			c-0.3-0.1-0.7-0.2-1-0.2c-0.4,0-0.7,0.1-1,0.2c-0.3,0.1-0.6,0.3-0.8,0.6c-0.2,0.2-0.4,0.5-0.6,0.8c-0.1,0.3-0.2,0.7-0.2,1v6.1
			c0,0.4,0.1,0.7,0.2,1c0.1,0.3,0.3,0.6,0.6,0.8c0.2,0.2,0.5,0.4,0.8,0.6C4.7,103.3,5.1,103.4,5.5,103.4z"/>
		<path id="XMLID_151_" fill="#424540" d="M18.7,91.2v0.9h-1c-0.4,0-0.7,0.1-1,0.2c-0.3,0.1-0.6,0.3-0.8,0.6s-0.4,0.5-0.6,0.8
			c-0.1,0.3-0.2,0.7-0.2,1v3v6.4h-0.9v-6.4v-3v-2.5h-0.9v-0.9h0.9H15v0.9v0.2c0.6-0.8,1.5-1.2,2.5-1.2L18.7,91.2L18.7,91.2z"/>
		<path id="XMLID_148_" fill="#424540" d="M25.4,91.2c0.5,0,0.9,0.1,1.3,0.3c0.4,0.2,0.7,0.4,1,0.7s0.5,0.7,0.7,1.1
			c0.2,0.4,0.2,0.9,0.2,1.4v3v3.1v3.3h-0.9V103c-0.3,0.4-0.7,0.6-1.2,0.9c-0.5,0.2-0.9,0.3-1.4,0.3c-0.5,0-0.9-0.1-1.4-0.3
			c-0.4-0.2-0.8-0.4-1.1-0.7c-0.3-0.3-0.6-0.7-0.7-1.1c-0.2-0.4-0.3-0.9-0.3-1.4V100c0-1.1,0.6-1.9,2-2.3c0.2-0.1,0.4-0.2,0.8-0.3
			c0.4-0.1,0.8-0.3,1.2-0.5c0.4-0.2,0.8-0.3,1.2-0.5c0.4-0.2,0.7-0.3,0.9-0.3v-1.4c0-0.7-0.2-1.3-0.7-1.9c-0.4-0.5-1-0.8-1.7-0.8
			c-0.4,0-0.7,0.1-1,0.2c-0.3,0.1-0.6,0.3-0.8,0.6c-0.2,0.2-0.4,0.5-0.6,0.8c-0.1,0.3-0.2,0.7-0.2,1h-0.9c0-0.5,0.1-0.9,0.3-1.4
			c0.2-0.4,0.4-0.8,0.7-1.1c0.3-0.3,0.7-0.6,1.1-0.7C24.5,91.3,25,91.2,25.4,91.2z M27.8,97.7V97c-0.3,0.1-0.6,0.2-0.9,0.4
			c-0.4,0.1-0.8,0.3-1.1,0.4c-0.4,0.2-0.7,0.3-1,0.4c-0.3,0.1-0.5,0.2-0.7,0.3c-0.3,0.1-0.6,0.3-0.9,0.5c-0.3,0.2-0.5,0.6-0.5,1v0.7
			c0,0.4,0.1,0.7,0.2,1c0.1,0.3,0.3,0.6,0.6,0.8c0.2,0.2,0.5,0.4,0.8,0.6c0.3,0.1,0.7,0.2,1,0.2c0.4,0,0.7-0.1,1-0.2
			c0.3-0.1,0.6-0.3,0.8-0.6c0.2-0.2,0.4-0.5,0.6-0.8c0.1-0.3,0.2-0.7,0.2-1L27.8,97.7L27.8,97.7z"/>
		<path id="XMLID_145_" fill="#424540" d="M33.8,91.1h0.9V92v11.9h-0.9V92H33v-0.9H33.8z M34.1,88.2c-0.2,0-0.3-0.1-0.5-0.2
			c-0.1-0.1-0.2-0.3-0.2-0.5s0.1-0.3,0.2-0.5c0.1-0.1,0.3-0.2,0.5-0.2c0.2,0,0.3,0.1,0.5,0.2c0.1,0.1,0.2,0.3,0.2,0.5
			s-0.1,0.3-0.2,0.5C34.4,88.1,34.2,88.2,34.1,88.2z"/>
		<path id="XMLID_144_" fill="#424540" d="M43.1,91.2c0.5,0,0.9,0.1,1.4,0.3c0.4,0.2,0.8,0.4,1.1,0.7c0.3,0.3,0.6,0.7,0.7,1.1
			c0.2,0.4,0.3,0.9,0.3,1.4v3v6.4h-0.9v-6.4v-3c0-0.4-0.1-0.7-0.2-1c-0.1-0.3-0.3-0.6-0.6-0.8c-0.2-0.2-0.5-0.4-0.8-0.6
			c-0.3-0.1-0.7-0.2-1-0.2c-0.4,0-0.7,0.1-1,0.2c-0.3,0.1-0.6,0.3-0.8,0.6c-0.2,0.2-0.4,0.5-0.6,0.8c-0.1,0.3-0.2,0.7-0.2,1v3v6.4
			h-0.9v-6.4v-3v-3.3h0.9v1.1c0.3-0.4,0.7-0.7,1.2-0.9C42.1,91.3,42.6,91.2,43.1,91.2z"/>
		<path id="XMLID_143_" fill="#424540" d="M54.6,97.3c0.4,0.2,0.8,0.4,1.1,0.6c0.4,0.2,0.7,0.5,1.1,0.7c0.3,0.3,0.6,0.6,0.8,0.9
			c0.2,0.3,0.3,0.7,0.3,1.2c0,0.5-0.1,0.9-0.3,1.4c-0.2,0.4-0.4,0.8-0.7,1.1c-0.3,0.3-0.7,0.6-1.1,0.7c-0.4,0.2-0.9,0.3-1.4,0.3
			c-0.5,0-0.9-0.1-1.4-0.3c-0.4-0.2-0.8-0.4-1.1-0.7s-0.6-0.7-0.7-1.1c-0.2-0.4-0.3-0.9-0.3-1.4h0.9c0,0.4,0.1,0.7,0.2,1
			c0.1,0.3,0.3,0.6,0.6,0.8s0.5,0.4,0.8,0.6c0.3,0.1,0.7,0.2,1,0.2c0.4,0,0.7-0.1,1-0.2c0.3-0.1,0.6-0.3,0.8-0.6
			c0.2-0.2,0.4-0.5,0.6-0.8c0.1-0.3,0.2-0.7,0.2-1c0-0.3-0.1-0.6-0.2-0.8c-0.2-0.3-0.4-0.5-0.6-0.7c-0.3-0.2-0.6-0.4-0.9-0.6
			c-0.3-0.2-0.7-0.4-1.1-0.6c-0.4-0.2-0.8-0.4-1.2-0.6S52.3,97,52,96.7c-0.3-0.3-0.6-0.6-0.8-0.9c-0.2-0.3-0.3-0.7-0.3-1.2
			c0-0.5,0.1-0.9,0.3-1.4c0.2-0.4,0.4-0.8,0.7-1.1c0.3-0.3,0.7-0.6,1.1-0.7c0.4-0.2,0.9-0.3,1.4-0.3s0.9,0.1,1.4,0.3
			c0.4,0.2,0.8,0.4,1.1,0.7s0.6,0.7,0.7,1.1c0.2,0.4,0.3,0.9,0.3,1.4H57c0-0.4-0.1-0.7-0.2-1c-0.1-0.3-0.3-0.6-0.6-0.8
			c-0.2-0.2-0.5-0.4-0.8-0.6c-0.3-0.1-0.7-0.2-1-0.2c-0.4,0-0.7,0.1-1,0.2c-0.3,0.1-0.6,0.3-0.8,0.6s-0.4,0.5-0.6,0.8
			c-0.1,0.3-0.2,0.7-0.2,1c0,0.3,0.1,0.6,0.2,0.8c0.2,0.3,0.4,0.5,0.6,0.7c0.3,0.2,0.6,0.4,0.9,0.6S54.3,97.1,54.6,97.3z"/>
		<path id="XMLID_142_" fill="#424540" d="M72.5,97.3c0.4,0.2,0.8,0.4,1.1,0.6c0.4,0.2,0.7,0.5,1.1,0.7c0.3,0.3,0.6,0.6,0.8,0.9
			c0.2,0.3,0.3,0.7,0.3,1.2c0,0.5-0.1,0.9-0.3,1.4c-0.2,0.4-0.4,0.8-0.7,1.1c-0.3,0.3-0.7,0.6-1.1,0.7c-0.4,0.2-0.9,0.3-1.4,0.3
			c-0.5,0-0.9-0.1-1.4-0.3c-0.4-0.2-0.8-0.4-1.1-0.7s-0.6-0.7-0.7-1.1c-0.2-0.4-0.3-0.9-0.3-1.4h0.9c0,0.4,0.1,0.7,0.2,1
			c0.1,0.3,0.3,0.6,0.6,0.8s0.5,0.4,0.8,0.6c0.3,0.1,0.7,0.2,1,0.2c0.4,0,0.7-0.1,1-0.2c0.3-0.1,0.6-0.3,0.8-0.6
			c0.2-0.2,0.4-0.5,0.6-0.8c0.1-0.3,0.2-0.7,0.2-1c0-0.3-0.1-0.6-0.2-0.8c-0.2-0.3-0.4-0.5-0.6-0.7c-0.3-0.2-0.6-0.4-0.9-0.6
			c-0.3-0.2-0.7-0.4-1.1-0.6c-0.4-0.2-0.8-0.4-1.2-0.6s-0.7-0.5-1.1-0.7c-0.3-0.3-0.6-0.6-0.8-0.9c-0.2-0.3-0.3-0.7-0.3-1.2
			c0-0.5,0.1-0.9,0.3-1.4c0.2-0.4,0.4-0.8,0.7-1.1c0.3-0.3,0.7-0.6,1.1-0.7c0.4-0.2,0.9-0.3,1.4-0.3c0.5,0,0.9,0.1,1.4,0.3
			c0.4,0.2,0.8,0.4,1.1,0.7s0.6,0.7,0.7,1.1c0.2,0.4,0.3,0.9,0.3,1.4h-0.9c0-0.4-0.1-0.7-0.2-1c-0.1-0.3-0.3-0.6-0.6-0.8
			c-0.2-0.2-0.5-0.4-0.8-0.6c-0.3-0.1-0.7-0.2-1-0.2c-0.4,0-0.7,0.1-1,0.2c-0.3,0.1-0.6,0.3-0.8,0.6c-0.2,0.2-0.4,0.5-0.6,0.8
			c-0.1,0.3-0.2,0.7-0.2,1c0,0.3,0.1,0.6,0.2,0.8c0.2,0.3,0.4,0.5,0.6,0.7c0.3,0.2,0.6,0.4,0.9,0.6S72.2,97.1,72.5,97.3z"/>
		<path id="XMLID_139_" fill="#424540" d="M85.2,97c-0.2,0-0.4,0.2-0.8,0.3c-0.4,0.2-0.8,0.3-1.2,0.5c-0.4,0.2-0.8,0.3-1.2,0.5
			c-0.4,0.2-0.7,0.3-0.9,0.3v2.2c0,0.4,0.1,0.7,0.2,1c0.1,0.3,0.3,0.6,0.6,0.8s0.5,0.4,0.8,0.6c0.3,0.1,0.7,0.2,1,0.2
			c0.4,0,0.7-0.1,1-0.2c0.3-0.1,0.6-0.3,0.8-0.6c0.2-0.2,0.4-0.5,0.6-0.8c0.1-0.3,0.2-0.7,0.2-1h0.9c0,0.5-0.1,0.9-0.3,1.4
			c-0.2,0.4-0.4,0.8-0.7,1.1c-0.3,0.3-0.7,0.6-1.1,0.7c-0.4,0.2-0.9,0.3-1.4,0.3c-0.5,0-0.9-0.1-1.4-0.3c-0.4-0.2-0.8-0.4-1.1-0.7
			s-0.6-0.7-0.7-1.1c-0.2-0.4-0.3-0.9-0.3-1.4v-6.1c0-0.5,0.1-0.9,0.3-1.4c0.2-0.4,0.4-0.8,0.7-1.1c0.3-0.3,0.7-0.6,1.1-0.7
			c0.4-0.2,0.9-0.3,1.4-0.3c0.5,0,0.9,0.1,1.4,0.3c0.4,0.2,0.8,0.4,1.1,0.7s0.6,0.7,0.7,1.1c0.2,0.4,0.3,0.9,0.3,1.3v0
			C87.1,95.7,86.5,96.5,85.2,97z M83.7,92c-0.4,0-0.7,0.1-1,0.2c-0.3,0.1-0.6,0.3-0.8,0.6c-0.2,0.2-0.4,0.5-0.6,0.8
			c-0.1,0.3-0.2,0.7-0.2,1v3c0.3-0.1,0.6-0.2,0.9-0.4c0.4-0.2,0.8-0.3,1.1-0.4c0.4-0.1,0.7-0.3,1.1-0.4c0.3-0.1,0.5-0.2,0.7-0.3
			c0.3-0.1,0.6-0.3,0.9-0.5c0.3-0.2,0.5-0.6,0.5-1c0-0.4-0.1-0.7-0.2-1c-0.1-0.3-0.3-0.6-0.6-0.8c-0.2-0.2-0.5-0.4-0.8-0.6
			C84.4,92.1,84,92,83.7,92z"/>
		<path id="XMLID_138_" fill="#424540" d="M98.5,91.3v6.4v3.1v3.3h-0.9V103c-0.3,0.4-0.7,0.6-1.2,0.9c-0.5,0.2-0.9,0.3-1.4,0.3
			c-0.5,0-0.9-0.1-1.4-0.3c-0.4-0.2-0.8-0.4-1.1-0.7c-0.3-0.3-0.6-0.7-0.7-1.1c-0.2-0.4-0.3-0.9-0.3-1.4v-3.1v-6.4h0.9v6.4v3.1
			c0,0.4,0.1,0.7,0.2,1c0.1,0.3,0.3,0.6,0.6,0.8c0.2,0.2,0.5,0.4,0.8,0.6c0.3,0.1,0.7,0.2,1,0.2c0.4,0,0.7-0.1,1-0.2
			c0.3-0.1,0.6-0.3,0.8-0.6c0.2-0.2,0.4-0.5,0.6-0.8c0.1-0.3,0.2-0.7,0.2-1v-3.1v-6.4L98.5,91.3L98.5,91.3z"/>
		<path id="XMLID_137_" fill="#424540" d="M103,104.1V85.5h0.9v18.5H103z"/>
		<path id="XMLID_134_" fill="#424540" d="M113.5,97c-0.2,0-0.4,0.2-0.8,0.3c-0.4,0.2-0.8,0.3-1.2,0.5c-0.4,0.2-0.8,0.3-1.2,0.5
			c-0.4,0.2-0.7,0.3-0.9,0.3v2.2c0,0.4,0.1,0.7,0.2,1c0.1,0.3,0.3,0.6,0.6,0.8s0.5,0.4,0.8,0.6c0.3,0.1,0.7,0.2,1,0.2
			c0.4,0,0.7-0.1,1-0.2c0.3-0.1,0.6-0.3,0.8-0.6c0.2-0.2,0.4-0.5,0.6-0.8c0.1-0.3,0.2-0.7,0.2-1h0.9c0,0.5-0.1,0.9-0.3,1.4
			c-0.2,0.4-0.4,0.8-0.7,1.1c-0.3,0.3-0.7,0.6-1.1,0.7c-0.4,0.2-0.9,0.3-1.4,0.3c-0.5,0-0.9-0.1-1.4-0.3c-0.4-0.2-0.8-0.4-1.1-0.7
			s-0.6-0.7-0.7-1.1c-0.2-0.4-0.3-0.9-0.3-1.4v-6.1c0-0.5,0.1-0.9,0.3-1.4c0.2-0.4,0.4-0.8,0.7-1.1c0.3-0.3,0.7-0.6,1.1-0.7
			c0.4-0.2,0.9-0.3,1.4-0.3c0.5,0,0.9,0.1,1.4,0.3c0.4,0.2,0.8,0.4,1.1,0.7c0.3,0.3,0.6,0.7,0.7,1.1c0.2,0.4,0.3,0.9,0.3,1.3v0
			C115.4,95.7,114.8,96.5,113.5,97z M112,92c-0.4,0-0.7,0.1-1,0.2c-0.3,0.1-0.6,0.3-0.8,0.6c-0.2,0.2-0.4,0.5-0.6,0.8
			c-0.1,0.3-0.2,0.7-0.2,1v3c0.3-0.1,0.6-0.2,0.9-0.4c0.4-0.2,0.8-0.3,1.1-0.4c0.4-0.1,0.7-0.3,1.1-0.4c0.3-0.1,0.5-0.2,0.7-0.3
			c0.3-0.1,0.6-0.3,0.9-0.5c0.3-0.2,0.5-0.6,0.5-1c0-0.4-0.1-0.7-0.2-1c-0.1-0.3-0.3-0.6-0.6-0.8c-0.2-0.2-0.5-0.4-0.8-0.6
			C112.7,92.1,112.3,92,112,92z"/>
		<path id="XMLID_133_" fill="#424540" d="M129.3,91.2c0.5,0,0.9,0.1,1.4,0.3c0.4,0.2,0.8,0.4,1.1,0.7c0.3,0.3,0.6,0.7,0.7,1.1
			c0.2,0.4,0.3,0.9,0.3,1.4v3v6.4h-0.9v-6.4v-3c0-0.4-0.1-0.7-0.2-1c-0.1-0.3-0.3-0.6-0.6-0.8c-0.2-0.2-0.5-0.4-0.8-0.6
			c-0.3-0.1-0.7-0.2-1-0.2c-0.3,0-0.7,0.1-1,0.2c-0.3,0.1-0.6,0.3-0.8,0.6c-0.2,0.2-0.4,0.5-0.6,0.8c-0.1,0.3-0.2,0.7-0.2,1v3v6.4
			h-0.9v-6.4v-3c0-0.4-0.1-0.7-0.2-1c-0.1-0.3-0.3-0.6-0.6-0.8c-0.2-0.2-0.5-0.4-0.8-0.6c-0.3-0.1-0.7-0.2-1-0.2s-0.7,0.1-1,0.2
			c-0.3,0.1-0.6,0.3-0.8,0.6c-0.2,0.2-0.4,0.5-0.6,0.8c-0.1,0.3-0.2,0.7-0.2,1v3v6.4h-0.9v-6.4v-3v-3.3h0.9v1.1
			c0.3-0.4,0.7-0.7,1.2-0.9c0.5-0.2,0.9-0.3,1.4-0.3c0.6,0,1.3,0.2,1.8,0.5c0.5,0.3,1,0.8,1.3,1.3c0.3-0.5,0.7-1,1.3-1.3
			C128,91.3,128.6,91.2,129.3,91.2z"/>
		<path id="XMLID_130_" fill="#424540" d="M142.1,97c-0.2,0-0.4,0.2-0.8,0.3c-0.4,0.2-0.8,0.3-1.2,0.5c-0.4,0.2-0.8,0.3-1.2,0.5
			c-0.4,0.2-0.7,0.3-0.9,0.3v2.2c0,0.4,0.1,0.7,0.2,1c0.1,0.3,0.3,0.6,0.6,0.8s0.5,0.4,0.8,0.6c0.3,0.1,0.7,0.2,1,0.2s0.7-0.1,1-0.2
			c0.3-0.1,0.6-0.3,0.8-0.6c0.2-0.2,0.4-0.5,0.6-0.8c0.1-0.3,0.2-0.7,0.2-1h0.9c0,0.5-0.1,0.9-0.3,1.4c-0.2,0.4-0.4,0.8-0.7,1.1
			c-0.3,0.3-0.7,0.6-1.1,0.7c-0.4,0.2-0.9,0.3-1.4,0.3c-0.5,0-0.9-0.1-1.4-0.3c-0.4-0.2-0.8-0.4-1.1-0.7c-0.3-0.3-0.6-0.7-0.7-1.1
			s-0.3-0.9-0.3-1.4v-6.1c0-0.5,0.1-0.9,0.3-1.4c0.2-0.4,0.4-0.8,0.7-1.1c0.3-0.3,0.7-0.6,1.1-0.7c0.4-0.2,0.9-0.3,1.4-0.3
			c0.5,0,0.9,0.1,1.4,0.3c0.4,0.2,0.8,0.4,1.1,0.7c0.3,0.3,0.6,0.7,0.7,1.1c0.2,0.4,0.3,0.9,0.3,1.3v0
			C144.1,95.7,143.4,96.5,142.1,97z M140.6,92c-0.4,0-0.7,0.1-1,0.2c-0.3,0.1-0.6,0.3-0.8,0.6c-0.2,0.2-0.4,0.5-0.6,0.8
			c-0.1,0.3-0.2,0.7-0.2,1v3c0.3-0.1,0.6-0.2,0.9-0.4c0.4-0.2,0.8-0.3,1.1-0.4c0.4-0.1,0.7-0.3,1.1-0.4c0.3-0.1,0.5-0.2,0.7-0.3
			c0.3-0.1,0.6-0.3,0.9-0.5c0.3-0.2,0.5-0.6,0.5-1c0-0.4-0.1-0.7-0.2-1c-0.1-0.3-0.3-0.6-0.6-0.8c-0.2-0.2-0.5-0.4-0.8-0.6
			C141.3,92.1,141,92,140.6,92z"/>
		<path id="XMLID_129_" fill="#424540" d="M151.9,91.2c0.5,0,0.9,0.1,1.4,0.3c0.4,0.2,0.8,0.4,1.1,0.7c0.3,0.3,0.6,0.7,0.7,1.1
			c0.2,0.4,0.3,0.9,0.3,1.4v3v6.4h-0.9v-6.4v-3c0-0.4-0.1-0.7-0.2-1c-0.1-0.3-0.3-0.6-0.6-0.8c-0.2-0.2-0.5-0.4-0.8-0.6
			c-0.3-0.1-0.7-0.2-1-0.2s-0.7,0.1-1,0.2c-0.3,0.1-0.6,0.3-0.8,0.6c-0.2,0.2-0.4,0.5-0.6,0.8c-0.1,0.3-0.2,0.7-0.2,1v3v6.4h-0.9
			v-6.4v-3v-3.3h0.9v1.1c0.3-0.4,0.7-0.7,1.2-0.9C150.9,91.3,151.4,91.2,151.9,91.2z"/>
		<path id="XMLID_128_" fill="#424540" d="M160.6,97.7v3.1c0,0.4,0.1,0.7,0.2,1c0.1,0.3,0.3,0.6,0.5,0.8c0.2,0.2,0.5,0.4,0.7,0.6
			c0.3,0.1,0.6,0.2,0.9,0.2v0.9c-0.4,0-0.8-0.1-1.2-0.3c-0.4-0.2-0.7-0.4-1-0.7c-0.3-0.3-0.5-0.7-0.7-1.1c-0.2-0.4-0.2-0.9-0.2-1.4
			v-3.1v-5.5v-0.9v-3.6h0.9v3.6h2.8v0.9h-2.8L160.6,97.7L160.6,97.7z"/>
		<path id="XMLID_125_" fill="#424540" d="M8.9,110.7v9.1v6.1v3.3H8.1v-1.1c-0.3,0.4-0.7,0.6-1.2,0.9c-0.5,0.2-0.9,0.3-1.4,0.3
			c-0.5,0-0.9-0.1-1.4-0.3c-0.4-0.2-0.8-0.4-1.1-0.7c-0.3-0.3-0.6-0.7-0.7-1.1c-0.2-0.4-0.3-0.9-0.3-1.4v-6.1c0-0.5,0.1-0.9,0.3-1.4
			c0.2-0.4,0.4-0.8,0.7-1.1c0.3-0.3,0.7-0.6,1.1-0.7c0.4-0.2,0.9-0.3,1.4-0.3c0.5,0,1,0.1,1.4,0.3c0.5,0.2,0.8,0.5,1.2,0.9v-6.8H8.9
			z M5.5,128.6c0.4,0,0.7-0.1,1-0.2c0.3-0.1,0.6-0.3,0.8-0.6c0.2-0.2,0.4-0.5,0.6-0.8c0.1-0.3,0.2-0.7,0.2-1v-6.1
			c0-0.4-0.1-0.7-0.2-1c-0.1-0.3-0.3-0.6-0.6-0.8s-0.5-0.4-0.8-0.6c-0.3-0.1-0.7-0.2-1-0.2c-0.4,0-0.7,0.1-1,0.2
			c-0.3,0.1-0.6,0.3-0.8,0.6c-0.2,0.2-0.4,0.5-0.6,0.8c-0.1,0.3-0.2,0.7-0.2,1v6.1c0,0.4,0.1,0.7,0.2,1c0.1,0.3,0.3,0.6,0.6,0.8
			c0.2,0.2,0.5,0.4,0.8,0.6C4.7,128.5,5.1,128.6,5.5,128.6z"/>
		<path id="XMLID_122_" fill="#424540" d="M18.4,122.2c-0.2,0-0.4,0.2-0.8,0.3c-0.4,0.2-0.8,0.3-1.2,0.5c-0.4,0.2-0.8,0.3-1.2,0.5
			c-0.4,0.2-0.7,0.3-0.9,0.3v2.2c0,0.4,0.1,0.7,0.2,1c0.1,0.3,0.3,0.6,0.6,0.8c0.2,0.2,0.5,0.4,0.8,0.6c0.3,0.1,0.7,0.2,1,0.2
			c0.4,0,0.7-0.1,1-0.2c0.3-0.1,0.6-0.3,0.8-0.6c0.2-0.2,0.4-0.5,0.6-0.8c0.1-0.3,0.2-0.7,0.2-1h0.9c0,0.5-0.1,0.9-0.3,1.4
			c-0.2,0.4-0.4,0.8-0.7,1.1c-0.3,0.3-0.7,0.6-1.1,0.7c-0.4,0.2-0.9,0.3-1.4,0.3s-0.9-0.1-1.4-0.3c-0.4-0.2-0.8-0.4-1.1-0.7
			c-0.3-0.3-0.6-0.7-0.7-1.1c-0.2-0.4-0.3-0.9-0.3-1.4v-6.1c0-0.5,0.1-0.9,0.3-1.4c0.2-0.4,0.4-0.8,0.7-1.1c0.3-0.3,0.7-0.6,1.1-0.7
			c0.4-0.2,0.9-0.3,1.4-0.3s0.9,0.1,1.4,0.3c0.4,0.2,0.8,0.4,1.1,0.7c0.3,0.3,0.6,0.7,0.7,1.1c0.2,0.4,0.3,0.9,0.3,1.3v0
			C20.4,120.9,19.7,121.7,18.4,122.2z M16.9,117.3c-0.4,0-0.7,0.1-1,0.2c-0.3,0.1-0.6,0.3-0.8,0.6c-0.2,0.2-0.4,0.5-0.6,0.8
			c-0.1,0.3-0.2,0.7-0.2,1v3c0.3-0.1,0.6-0.2,0.9-0.4c0.4-0.2,0.8-0.3,1.1-0.4c0.4-0.1,0.7-0.3,1.1-0.4c0.3-0.1,0.5-0.2,0.7-0.3
			c0.3-0.1,0.6-0.3,0.9-0.5c0.3-0.2,0.5-0.6,0.5-1c0-0.4-0.1-0.7-0.2-1c-0.1-0.3-0.3-0.6-0.6-0.8s-0.5-0.4-0.8-0.6
			C17.6,117.3,17.3,117.3,16.9,117.3z"/>
		<path id="XMLID_121_" fill="#424540" d="M32.2,122.9v3.1c0,0.4,0.1,0.7,0.2,1c0.1,0.3,0.3,0.6,0.5,0.8c0.2,0.2,0.5,0.4,0.7,0.6
			c0.3,0.1,0.6,0.2,0.9,0.2v0.9c-0.4,0-0.8-0.1-1.2-0.3c-0.4-0.2-0.7-0.4-1-0.7c-0.3-0.3-0.5-0.7-0.7-1.1c-0.2-0.4-0.2-0.9-0.2-1.4
			v-3.1v-5.5v-0.9v-3.6h0.9v3.6h2.8v0.9h-2.8L32.2,122.9L32.2,122.9z"/>
		<path id="XMLID_120_" fill="#424540" d="M38.9,115.5v-4.7h0.9v4.7H38.9z"/>
		<path id="XMLID_117_" fill="#424540" d="M48.6,116.4c0.5,0,0.9,0.1,1.3,0.3c0.4,0.2,0.7,0.4,1,0.7c0.3,0.3,0.5,0.7,0.7,1.1
			c0.2,0.4,0.2,0.9,0.2,1.4v3v3.1v3.3H51v-1.1c-0.3,0.4-0.7,0.6-1.2,0.9c-0.5,0.2-0.9,0.3-1.4,0.3c-0.5,0-0.9-0.1-1.4-0.3
			c-0.4-0.2-0.8-0.4-1.1-0.7c-0.3-0.3-0.6-0.7-0.7-1.1c-0.2-0.4-0.3-0.9-0.3-1.4v-0.7c0-1.1,0.6-1.9,2-2.3c0.2-0.1,0.4-0.2,0.8-0.3
			c0.4-0.1,0.8-0.3,1.2-0.5c0.4-0.2,0.8-0.3,1.2-0.5c0.4-0.2,0.7-0.3,0.9-0.3v-1.4c0-0.7-0.2-1.3-0.7-1.9c-0.4-0.5-1-0.8-1.7-0.8
			c-0.4,0-0.7,0.1-1,0.2c-0.3,0.1-0.6,0.3-0.8,0.6c-0.2,0.2-0.4,0.5-0.6,0.8c-0.1,0.3-0.2,0.7-0.2,1h-0.9c0-0.5,0.1-0.9,0.3-1.4
			c0.2-0.4,0.4-0.8,0.7-1.1c0.3-0.3,0.7-0.6,1.1-0.7C47.7,116.5,48.1,116.4,48.6,116.4z M51,122.9v-0.6c-0.3,0.1-0.6,0.2-0.9,0.4
			c-0.4,0.1-0.8,0.3-1.1,0.4c-0.4,0.2-0.7,0.3-1,0.4c-0.3,0.1-0.5,0.2-0.7,0.3c-0.3,0.1-0.6,0.3-0.9,0.5c-0.3,0.2-0.5,0.6-0.5,1v0.7
			c0,0.4,0.1,0.7,0.2,1c0.1,0.3,0.3,0.6,0.6,0.8c0.2,0.2,0.5,0.4,0.8,0.6c0.3,0.1,0.7,0.2,1,0.2c0.4,0,0.7-0.1,1-0.2
			c0.3-0.1,0.6-0.3,0.8-0.6c0.2-0.2,0.4-0.5,0.6-0.8c0.1-0.3,0.2-0.7,0.2-1L51,122.9L51,122.9z"/>
		<path id="XMLID_116_" fill="#424540" d="M61.5,116.4v0.9h-1c-0.4,0-0.7,0.1-1,0.2c-0.3,0.1-0.6,0.3-0.8,0.6
			c-0.2,0.2-0.4,0.5-0.6,0.8c-0.1,0.3-0.2,0.7-0.2,1v3v6.4H57v-6.4v-3v-2.5h-0.9v-0.9H57h0.9v0.9v0.2c0.6-0.8,1.5-1.2,2.5-1.2
			L61.5,116.4L61.5,116.4z"/>
		<path id="XMLID_115_" fill="#424540" d="M70.6,116.4v0.9h-1c-0.4,0-0.7,0.1-1,0.2c-0.3,0.1-0.6,0.3-0.8,0.6
			c-0.2,0.2-0.4,0.5-0.6,0.8c-0.1,0.3-0.2,0.7-0.2,1v3v6.4h-0.9v-6.4v-3v-2.5h-0.9v-0.9h0.9h0.9v0.9v0.2c0.6-0.8,1.5-1.2,2.5-1.2
			L70.6,116.4L70.6,116.4z"/>
		<path id="XMLID_111_" fill="#424540" d="M79.7,122.2c-0.2,0-0.4,0.2-0.8,0.3c-0.4,0.2-0.8,0.3-1.2,0.5c-0.4,0.2-0.8,0.3-1.2,0.5
			c-0.4,0.2-0.7,0.3-0.9,0.3v2.2c0,0.4,0.1,0.7,0.2,1c0.1,0.3,0.3,0.6,0.6,0.8c0.2,0.2,0.5,0.4,0.8,0.6c0.3,0.1,0.7,0.2,1,0.2
			c0.4,0,0.7-0.1,1-0.2c0.3-0.1,0.6-0.3,0.8-0.6c0.2-0.2,0.4-0.5,0.6-0.8c0.1-0.3,0.2-0.7,0.2-1h0.9c0,0.5-0.1,0.9-0.3,1.4
			c-0.2,0.4-0.4,0.8-0.7,1.1s-0.7,0.6-1.1,0.7c-0.4,0.2-0.9,0.3-1.4,0.3c-0.5,0-0.9-0.1-1.4-0.3c-0.4-0.2-0.8-0.4-1.1-0.7
			c-0.3-0.3-0.6-0.7-0.7-1.1c-0.2-0.4-0.3-0.9-0.3-1.4v-6.1c0-0.5,0.1-0.9,0.3-1.4c0.2-0.4,0.4-0.8,0.7-1.1c0.3-0.3,0.7-0.6,1.1-0.7
			c0.4-0.2,0.9-0.3,1.4-0.3c0.5,0,0.9,0.1,1.4,0.3c0.4,0.2,0.8,0.4,1.1,0.7c0.3,0.3,0.6,0.7,0.7,1.1c0.2,0.4,0.3,0.9,0.3,1.3v0
			C81.6,120.9,81,121.7,79.7,122.2z M80.7,114.5l-2.5-1.5l-2.5,1.5l-0.1-0.8l2.6-1.6l0,0v0l2.6,1.5L80.7,114.5z M78.2,117.3
			c-0.4,0-0.7,0.1-1,0.2c-0.3,0.1-0.6,0.3-0.8,0.6s-0.4,0.5-0.6,0.8c-0.1,0.3-0.2,0.7-0.2,1v3c0.3-0.1,0.6-0.2,0.9-0.4
			c0.4-0.2,0.8-0.3,1.1-0.4c0.4-0.1,0.7-0.3,1.1-0.4c0.3-0.1,0.5-0.2,0.7-0.3c0.3-0.1,0.6-0.3,0.9-0.5c0.3-0.2,0.5-0.6,0.5-1
			c0-0.4-0.1-0.7-0.2-1c-0.1-0.3-0.3-0.6-0.6-0.8c-0.2-0.2-0.5-0.4-0.8-0.6C78.9,117.3,78.5,117.3,78.2,117.3z"/>
		<path id="XMLID_110_" fill="#424540" d="M86.9,122.9v3.1c0,0.4,0.1,0.7,0.2,1c0.1,0.3,0.3,0.6,0.5,0.8c0.2,0.2,0.5,0.4,0.7,0.6
			c0.3,0.1,0.6,0.2,0.9,0.2v0.9c-0.4,0-0.8-0.1-1.2-0.3c-0.4-0.2-0.7-0.4-1-0.7c-0.3-0.3-0.5-0.7-0.7-1.1c-0.2-0.4-0.2-0.9-0.2-1.4
			v-3.1v-5.5v-0.9v-3.6h0.9v3.6h2.8v0.9h-2.8L86.9,122.9L86.9,122.9z"/>
		<path id="XMLID_107_" fill="#424540" d="M98.1,122.2c-0.2,0-0.4,0.2-0.8,0.3c-0.4,0.2-0.8,0.3-1.2,0.5c-0.4,0.2-0.8,0.3-1.2,0.5
			c-0.4,0.2-0.7,0.3-0.9,0.3v2.2c0,0.4,0.1,0.7,0.2,1c0.1,0.3,0.3,0.6,0.6,0.8c0.2,0.2,0.5,0.4,0.8,0.6c0.3,0.1,0.7,0.2,1,0.2
			c0.4,0,0.7-0.1,1-0.2c0.3-0.1,0.6-0.3,0.8-0.6c0.2-0.2,0.4-0.5,0.6-0.8c0.1-0.3,0.2-0.7,0.2-1h0.9c0,0.5-0.1,0.9-0.3,1.4
			c-0.2,0.4-0.4,0.8-0.7,1.1s-0.7,0.6-1.1,0.7c-0.4,0.2-0.9,0.3-1.4,0.3c-0.5,0-0.9-0.1-1.4-0.3c-0.4-0.2-0.8-0.4-1.1-0.7
			c-0.3-0.3-0.6-0.7-0.7-1.1c-0.2-0.4-0.3-0.9-0.3-1.4v-6.1c0-0.5,0.1-0.9,0.3-1.4c0.2-0.4,0.4-0.8,0.7-1.1c0.3-0.3,0.7-0.6,1.1-0.7
			c0.4-0.2,0.9-0.3,1.4-0.3c0.5,0,0.9,0.1,1.4,0.3c0.4,0.2,0.8,0.4,1.1,0.7c0.3,0.3,0.6,0.7,0.7,1.1c0.2,0.4,0.3,0.9,0.3,1.3v0
			C100.1,120.9,99.4,121.7,98.1,122.2z M96.6,117.3c-0.4,0-0.7,0.1-1,0.2c-0.3,0.1-0.6,0.3-0.8,0.6c-0.2,0.2-0.4,0.5-0.6,0.8
			c-0.1,0.3-0.2,0.7-0.2,1v3c0.3-0.1,0.6-0.2,0.9-0.4c0.4-0.2,0.8-0.3,1.1-0.4c0.4-0.1,0.7-0.3,1.1-0.4c0.3-0.1,0.5-0.2,0.7-0.3
			c0.3-0.1,0.6-0.3,0.9-0.5c0.3-0.2,0.5-0.6,0.5-1c0-0.4-0.1-0.7-0.2-1c-0.1-0.3-0.3-0.6-0.6-0.8s-0.5-0.4-0.8-0.6
			C97.3,117.3,97,117.3,96.6,117.3z"/>
		<path id="XMLID_106_" fill="#424540" d="M109.2,116.4v0.9h-1c-0.4,0-0.7,0.1-1,0.2c-0.3,0.1-0.6,0.3-0.8,0.6
			c-0.2,0.2-0.4,0.5-0.6,0.8c-0.1,0.3-0.2,0.7-0.2,1v3v6.4h-0.9v-6.4v-3v-2.5h-0.9v-0.9h0.9h0.9v0.9v0.2c0.6-0.8,1.5-1.2,2.5-1.2
			L109.2,116.4L109.2,116.4z"/>
		<path id="XMLID_105_" fill="#424540" d="M115.2,128.5c0,0.3-0.1,0.5-0.3,0.7c-0.2,0.2-0.4,0.3-0.7,0.3s-0.5-0.1-0.7-0.3
			c-0.2-0.2-0.3-0.4-0.3-0.7c0-0.2,0.1-0.5,0.3-0.6c0.2-0.2,0.4-0.3,0.7-0.3s0.5,0.1,0.7,0.3S115.2,128.3,115.2,128.5z"/>
	</g>
	<g id="XMLID_100_">
		<g id="XMLID_101_">
			<defs>
				<rect id="XMLID_102_" x="1.7" y="144.4" width="179.3" height="0.9"/>
			</defs>
			<clipPath id="XMLID_2_">
				<use xlink:href="#XMLID_102_"  overflow="visible"/>
			</clipPath>
			<path id="XMLID_103_" clip-path="url(#XMLID_2_)" fill="#20221D" d="M160.2,145.3L160.2,145.3c-0.4,0-0.7-0.2-0.9-0.4
				c-0.2-0.2-0.5-0.3-0.7-0.3s-0.6,0.1-0.7,0.3c-0.2,0.2-0.6,0.4-0.9,0.4c-0.4,0-0.7-0.1-0.9-0.4c-0.2-0.2-0.5-0.3-0.7-0.3l0,0
				c-0.3,0-0.6,0.1-0.7,0.3c-0.2,0.2-0.6,0.4-0.9,0.4c-0.4,0-0.7-0.1-0.9-0.4c-0.2-0.2-0.5-0.3-0.7-0.3s-0.6,0.1-0.7,0.3
				c-0.2,0.2-0.6,0.4-0.9,0.4l0,0c-0.4,0-0.7-0.1-0.9-0.4c-0.2-0.2-0.5-0.3-0.7-0.3c-0.3,0-0.6,0.1-0.7,0.3
				c-0.2,0.2-0.6,0.4-0.9,0.4c-0.4,0-0.7-0.1-0.9-0.4c-0.2-0.2-0.5-0.3-0.7-0.3l0,0c-0.3,0-0.6,0.1-0.7,0.3
				c-0.2,0.2-0.6,0.4-0.9,0.4c-0.4,0-0.7-0.1-0.9-0.4c-0.2-0.2-0.5-0.3-0.7-0.3l0,0c-0.3,0-0.6,0.1-0.7,0.3
				c-0.2,0.2-0.6,0.4-0.9,0.4l0,0c-0.4,0-0.7-0.1-0.9-0.4c-0.2-0.2-0.5-0.3-0.7-0.3l0,0c-0.3,0-0.6,0.1-0.7,0.3
				c-0.2,0.2-0.6,0.4-0.9,0.4c-0.4,0-0.7-0.1-0.9-0.4c-0.2-0.2-0.5-0.3-0.7-0.3l0,0c-0.3,0-0.6,0.1-0.7,0.3
				c-0.2,0.2-0.6,0.4-0.9,0.4l0,0c-0.4,0-0.7-0.2-0.9-0.4c-0.2-0.2-0.5-0.3-0.7-0.3l0,0c-0.3,0-0.6,0.1-0.7,0.3
				c-0.2,0.2-0.6,0.4-0.9,0.4l0,0c-0.4,0-0.7-0.2-0.9-0.4c-0.2-0.2-0.5-0.3-0.7-0.3c-0.3,0-0.6,0.1-0.7,0.3
				c-0.2,0.2-0.6,0.4-0.9,0.4c-0.4,0-0.7-0.1-0.9-0.4c-0.2-0.2-0.5-0.3-0.7-0.3l0,0c-0.3,0-0.6,0.1-0.7,0.3
				c-0.2,0.2-0.6,0.4-0.9,0.4c-0.4,0-0.7-0.1-0.9-0.4c-0.2-0.2-0.5-0.3-0.7-0.3s-0.6,0.1-0.7,0.3c-0.2,0.2-0.6,0.4-0.9,0.4l0,0
				c-0.4,0-0.7-0.1-0.9-0.4c-0.2-0.2-0.5-0.3-0.7-0.3s-0.6,0.1-0.7,0.3c-0.2,0.2-0.6,0.4-0.9,0.4c-0.4,0-0.7-0.1-0.9-0.4
				c-0.2-0.2-0.5-0.3-0.7-0.3l0,0c-0.3,0-0.6,0.1-0.7,0.3c-0.2,0.2-0.6,0.4-0.9,0.4c-0.4,0-0.7-0.1-0.9-0.4
				c-0.2-0.2-0.5-0.3-0.7-0.3l0,0c-0.3,0-0.6,0.1-0.7,0.3c-0.2,0.2-0.6,0.4-0.9,0.4l0,0c-0.4,0-0.7-0.1-0.9-0.4
				c-0.2-0.2-0.5-0.3-0.7-0.3l0,0c-0.3,0-0.6,0.1-0.7,0.3c-0.2,0.2-0.6,0.4-0.9,0.4c-0.4,0-0.7-0.1-0.9-0.4
				c-0.2-0.2-0.5-0.3-0.7-0.3l0,0c-0.3,0-0.6,0.1-0.7,0.3c-0.2,0.2-0.6,0.4-0.9,0.4c-0.4,0-0.7-0.1-0.9-0.4
				c-0.2-0.2-0.5-0.3-0.7-0.3l0,0c-0.3,0-0.6,0.1-0.7,0.3c-0.2,0.2-0.6,0.4-0.9,0.4l0,0c-0.4,0-0.7-0.2-0.9-0.4
				c-0.2-0.2-0.5-0.3-0.7-0.3c-0.3,0-0.6,0.1-0.7,0.3c-0.2,0.2-0.6,0.4-0.9,0.4c-0.4,0-0.7-0.1-0.9-0.4c-0.2-0.2-0.5-0.3-0.7-0.3
				l0,0c-0.3,0-0.6,0.1-0.7,0.3c-0.2,0.2-0.6,0.4-0.9,0.4c-0.4,0-0.7-0.1-0.9-0.4c-0.2-0.2-0.5-0.3-0.7-0.3s-0.6,0.1-0.7,0.3
				c-0.2,0.2-0.6,0.4-0.9,0.4c-0.4,0-0.7-0.1-0.9-0.4c-0.2-0.2-0.5-0.3-0.7-0.3s-0.6,0.1-0.7,0.3c-0.2,0.2-0.6,0.4-0.9,0.4
				c-0.4,0-0.7-0.1-0.9-0.4c-0.2-0.2-0.5-0.3-0.7-0.3l0,0c-0.3,0-0.6,0.1-0.7,0.3c-0.2,0.2-0.6,0.4-0.9,0.4c-0.4,0-0.7-0.1-0.9-0.4
				c-0.2-0.2-0.5-0.3-0.7-0.3l0,0c-0.3,0-0.6,0.1-0.7,0.3c-0.2,0.2-0.6,0.4-0.9,0.4l0,0c-0.4,0-0.7-0.1-0.9-0.4
				c-0.2-0.2-0.5-0.3-0.7-0.3l0,0c-0.3,0-0.6,0.1-0.7,0.3c-0.2,0.2-0.6,0.4-0.9,0.4c-0.4,0-0.7-0.1-0.9-0.4
				c-0.2-0.2-0.5-0.3-0.7-0.3l0,0c-0.3,0-0.6,0.1-0.7,0.3c-0.2,0.2-0.6,0.4-0.9,0.4l0,0c-0.4,0-0.7-0.2-0.9-0.4
				c-0.2-0.2-0.5-0.3-0.7-0.3l0,0c-0.3,0-0.6,0.1-0.7,0.3c-0.2,0.2-0.6,0.4-0.9,0.4l0,0c-0.4,0-0.7-0.2-0.9-0.4
				c-0.2-0.2-0.5-0.3-0.7-0.3c-0.3,0-0.6,0.1-0.7,0.3c-0.2,0.2-0.6,0.4-0.9,0.4c-0.4,0-0.7-0.1-0.9-0.4c-0.2-0.2-0.5-0.3-0.7-0.3
				s-0.6,0.1-0.7,0.3c-0.2,0.2-0.6,0.4-0.9,0.4l0,0c-0.4,0-0.7-0.1-0.9-0.4c-0.2-0.2-0.5-0.3-0.7-0.3c-0.3,0-0.6,0.1-0.7,0.3
				c-0.2,0.2-0.6,0.4-0.9,0.4s-0.7-0.1-0.9-0.4c-0.2-0.2-0.5-0.3-0.7-0.3c-0.3,0-0.6,0.1-0.7,0.3c-0.2,0.2-0.6,0.4-0.9,0.4
				c-0.4,0-0.7-0.1-0.9-0.4c-0.2-0.2-0.5-0.3-0.7-0.3s-0.6,0.1-0.7,0.3c-0.2,0.2-0.6,0.4-0.9,0.4l0,0c-0.4,0-0.7-0.1-0.9-0.4
				c-0.2-0.2-0.5-0.3-0.7-0.3l0,0c-0.3,0-0.6,0.1-0.7,0.3c-0.2,0.2-0.6,0.4-0.9,0.4l0,0c-0.4,0-0.7-0.1-0.9-0.4
				c-0.2-0.2-0.5-0.3-0.7-0.3l0,0c-0.3,0-0.6,0.1-0.7,0.3c-0.2,0.2-0.6,0.4-0.9,0.4l0,0c-0.4,0-0.7-0.1-0.9-0.4
				c-0.2-0.2-0.5-0.3-0.7-0.3c-0.3,0-0.6,0.1-0.7,0.3c-0.2,0.2-0.6,0.4-0.9,0.4l0,0c-0.4,0-0.7-0.2-0.9-0.4
				c-0.2-0.2-0.5-0.3-0.7-0.3l0,0c-0.3,0-0.6,0.1-0.7,0.3c-0.2,0.2-0.6,0.4-0.9,0.4l0,0c-0.4,0-0.7-0.2-0.9-0.4
				c-0.2-0.2-0.5-0.3-0.7-0.3c-0.3,0-0.6,0.1-0.7,0.3c-0.2,0.2-0.6,0.4-0.9,0.4s-0.7-0.1-0.9-0.4c-0.2-0.2-0.5-0.3-0.7-0.3
				c-0.3,0-0.6,0.1-0.7,0.3c-0.2,0.2-0.6,0.4-0.9,0.4s-0.7-0.1-0.9-0.4c-0.2-0.2-0.5-0.3-0.7-0.3c-0.3,0-0.6,0.1-0.7,0.3
				c-0.2,0.2-0.6,0.4-0.9,0.4c-0.4,0-0.7-0.1-0.9-0.4c-0.2-0.2-0.5-0.3-0.7-0.3c-0.3,0-0.6,0.1-0.7,0.3c-0.2,0.2-0.6,0.4-0.9,0.4
				c-0.4,0-0.7-0.1-0.9-0.4c-0.2-0.2-0.5-0.3-0.7-0.3c-0.3,0-0.6,0.1-0.7,0.3c-0.2,0.2-0.6,0.4-0.9,0.4c-0.4,0-0.7-0.1-0.9-0.4
				c-0.2-0.2-0.5-0.3-0.7-0.3l0,0c-0.3,0-0.6,0.1-0.7,0.3c-0.2,0.2-0.6,0.4-0.9,0.4l0,0c-0.4,0-0.7-0.1-0.9-0.4
				c-0.2-0.2-0.5-0.3-0.7-0.3l0,0c-0.3,0-0.6,0.1-0.7,0.3c-0.2,0.2-0.6,0.4-0.9,0.4l0,0c-0.4,0-0.7-0.1-0.9-0.4
				c-0.2-0.2-0.5-0.3-0.7-0.3s-0.6,0.1-0.7,0.3c-0.2,0.2-0.6,0.4-0.9,0.4l0,0c-0.4,0-0.7-0.2-0.9-0.4c-0.2-0.2-0.5-0.3-0.7-0.3l0,0
				c-0.3,0-0.6,0.1-0.7,0.3c-0.2,0.2-0.6,0.4-0.9,0.4l0,0c-0.4,0-0.7-0.2-0.9-0.4c-0.2-0.2-0.5-0.3-0.7-0.3c-0.3,0-0.6,0.1-0.7,0.3
				c-0.2,0.2-0.6,0.4-0.9,0.4c-0.4,0-0.7-0.1-0.9-0.4c-0.2-0.2-0.5-0.3-0.7-0.3c-0.3,0-0.6,0.1-0.7,0.3c-0.2,0.2-0.6,0.4-0.9,0.4
				c-0.4,0-0.7-0.1-0.9-0.4c-0.2-0.2-0.5-0.3-0.7-0.3c-0.3,0-0.6,0.1-0.7,0.3l-0.2-0.2c0.2-0.2,0.6-0.4,0.9-0.4s0.7,0.1,0.9,0.4
				c0.2,0.2,0.5,0.3,0.7,0.3s0.6-0.1,0.7-0.3c0.2-0.2,0.6-0.4,0.9-0.4s0.7,0.1,0.9,0.4c0.2,0.2,0.5,0.3,0.7,0.3s0.6-0.1,0.7-0.3
				c0.2-0.2,0.6-0.4,0.9-0.4s0.7,0.1,0.9,0.4c0.2,0.2,0.5,0.3,0.7,0.3l0,0c0.3,0,0.6-0.1,0.7-0.3c0.2-0.2,0.6-0.4,0.9-0.4l0,0
				c0.4,0,0.7,0.1,0.9,0.4c0.2,0.2,0.5,0.3,0.7,0.3l0,0c0.3,0,0.6-0.1,0.7-0.3c0.2-0.2,0.6-0.4,0.9-0.4c0.4,0,0.7,0.1,0.9,0.4
				c0.2,0.2,0.5,0.3,0.7,0.3l0,0c0.3,0,0.6-0.1,0.7-0.3c0.2-0.2,0.6-0.4,0.9-0.4l0,0c0.4,0,0.7,0.2,0.9,0.4c0.2,0.2,0.5,0.3,0.7,0.3
				l0,0c0.3,0,0.6-0.1,0.7-0.3c0.2-0.2,0.6-0.4,0.9-0.4l0,0c0.4,0,0.7,0.2,0.9,0.4c0.2,0.2,0.5,0.3,0.7,0.3c0.3,0,0.6-0.1,0.7-0.3
				c0.2-0.2,0.6-0.4,0.9-0.4c0.4,0,0.7,0.1,0.9,0.4c0.2,0.2,0.5,0.3,0.7,0.3c0.3,0,0.6-0.1,0.7-0.3c0.2-0.2,0.6-0.4,0.9-0.4
				c0.4,0,0.7,0.1,0.9,0.4c0.2,0.2,0.5,0.3,0.7,0.3s0.6-0.1,0.7-0.3c0.2-0.2,0.6-0.4,0.9-0.4c0.4,0,0.7,0.1,0.9,0.4
				c0.2,0.2,0.5,0.3,0.7,0.3c0.3,0,0.6-0.1,0.7-0.3c0.2-0.2,0.6-0.4,0.9-0.4s0.7,0.1,0.9,0.4c0.2,0.2,0.5,0.3,0.7,0.3
				c0.3,0,0.6-0.1,0.7-0.3c0.2-0.2,0.6-0.4,0.9-0.4s0.7,0.1,0.9,0.4c0.2,0.2,0.5,0.3,0.7,0.3l0,0c0.3,0,0.6-0.1,0.7-0.3
				c0.2-0.2,0.6-0.4,0.9-0.4l0,0c0.4,0,0.7,0.1,0.9,0.4c0.2,0.2,0.5,0.3,0.7,0.3l0,0c0.3,0,0.6-0.1,0.7-0.3c0.2-0.2,0.6-0.4,0.9-0.4
				s0.7,0.1,0.9,0.4c0.2,0.2,0.5,0.3,0.7,0.3l0,0c0.3,0,0.6-0.1,0.7-0.3c0.2-0.2,0.6-0.4,0.9-0.4l0,0c0.4,0,0.7,0.2,0.9,0.4
				c0.2,0.2,0.5,0.3,0.7,0.3l0,0c0.3,0,0.6-0.1,0.7-0.3c0.2-0.2,0.6-0.4,0.9-0.4l0,0c0.4,0,0.7,0.2,0.9,0.4c0.2,0.2,0.5,0.3,0.7,0.3
				l0,0c0.3,0,0.6-0.1,0.7-0.3c0.2-0.2,0.6-0.4,0.9-0.4c0.4,0,0.7,0.1,0.9,0.4c0.2,0.2,0.5,0.3,0.7,0.3c0.3,0,0.6-0.1,0.7-0.3
				c0.2-0.2,0.6-0.4,0.9-0.4c0.4,0,0.7,0.1,0.9,0.4c0.2,0.2,0.5,0.3,0.7,0.3s0.6-0.1,0.7-0.3c0.2-0.2,0.6-0.4,0.9-0.4
				s0.7,0.1,0.9,0.4c0.2,0.2,0.5,0.3,0.7,0.3l0,0c0.3,0,0.6-0.1,0.7-0.3c0.2-0.2,0.6-0.4,0.9-0.4c0.4,0,0.7,0.1,0.9,0.4
				c0.2,0.2,0.5,0.3,0.7,0.3s0.6-0.1,0.7-0.3c0.2-0.2,0.6-0.4,0.9-0.4c0.4,0,0.7,0.1,0.9,0.4c0.2,0.2,0.5,0.3,0.7,0.3l0,0
				c0.3,0,0.6-0.1,0.7-0.3c0.2-0.2,0.6-0.4,0.9-0.4l0,0c0.4,0,0.7,0.1,0.9,0.4c0.2,0.2,0.5,0.3,0.7,0.3l0,0c0.3,0,0.6-0.1,0.7-0.3
				c0.2-0.2,0.6-0.4,0.9-0.4l0,0c0.4,0,0.7,0.1,0.9,0.4c0.2,0.2,0.5,0.3,0.7,0.3c0.3,0,0.6-0.1,0.7-0.3c0.2-0.2,0.6-0.4,0.9-0.4l0,0
				c0.4,0,0.7,0.2,0.9,0.4c0.2,0.2,0.5,0.3,0.7,0.3l0,0c0.3,0,0.6-0.1,0.7-0.3c0.2-0.2,0.6-0.4,0.9-0.4l0,0c0.4,0,0.7,0.2,0.9,0.4
				c0.2,0.2,0.5,0.3,0.7,0.3s0.6-0.1,0.7-0.3c0.2-0.2,0.6-0.4,0.9-0.4l0,0c0.4,0,0.7,0.1,0.9,0.4c0.2,0.2,0.5,0.3,0.7,0.3
				s0.6-0.1,0.7-0.3c0.2-0.2,0.6-0.4,0.9-0.4c0.4,0,0.7,0.1,0.9,0.4c0.2,0.2,0.5,0.3,0.7,0.3c0.3,0,0.6-0.1,0.7-0.3
				c0.2-0.2,0.6-0.4,0.9-0.4c0.4,0,0.7,0.1,0.9,0.4c0.2,0.2,0.5,0.3,0.7,0.3s0.6-0.1,0.7-0.3c0.2-0.2,0.6-0.4,0.9-0.4l0,0
				c0.4,0,0.7,0.1,0.9,0.4c0.2,0.2,0.5,0.3,0.7,0.3s0.6-0.1,0.7-0.3c0.2-0.2,0.6-0.4,0.9-0.4c0.4,0,0.7,0.1,0.9,0.4
				c0.2,0.2,0.5,0.3,0.7,0.3l0,0c0.3,0,0.6-0.1,0.7-0.3c0.2-0.2,0.6-0.4,0.9-0.4l0,0c0.4,0,0.7,0.1,0.9,0.4c0.2,0.2,0.5,0.3,0.7,0.3
				l0,0c0.3,0,0.6-0.1,0.7-0.3c0.2-0.2,0.6-0.4,0.9-0.4l0,0c0.4,0,0.7,0.1,0.9,0.4c0.2,0.2,0.5,0.3,0.7,0.3s0.6-0.1,0.7-0.3
				c0.2-0.2,0.6-0.4,0.9-0.4l0,0c0.4,0,0.7,0.2,0.9,0.4c0.2,0.2,0.5,0.3,0.7,0.3l0,0c0.3,0,0.6-0.1,0.7-0.3c0.2-0.2,0.6-0.4,0.9-0.4
				l0,0c0.4,0,0.7,0.2,0.9,0.4c0.2,0.2,0.5,0.3,0.7,0.3c0.3,0,0.6-0.1,0.7-0.3c0.2-0.2,0.6-0.4,0.9-0.4l0,0c0.4,0,0.7,0.1,0.9,0.4
				c0.2,0.2,0.5,0.3,0.7,0.3c0.3,0,0.6-0.1,0.7-0.3c0.2-0.2,0.6-0.4,0.9-0.4s0.7,0.1,0.9,0.4c0.2,0.2,0.5,0.3,0.7,0.3l0,0
				c0.3,0,0.6-0.1,0.7-0.3c0.2-0.2,0.6-0.4,0.9-0.4s0.7,0.1,0.9,0.4c0.2,0.2,0.5,0.3,0.7,0.3c0.3,0,0.6-0.1,0.7-0.3
				c0.2-0.2,0.6-0.4,0.9-0.4l0,0c0.4,0,0.7,0.1,0.9,0.4c0.2,0.2,0.5,0.3,0.7,0.3c0.3,0,0.6-0.1,0.7-0.3c0.2-0.2,0.6-0.4,0.9-0.4
				c0.4,0,0.7,0.1,0.9,0.4c0.2,0.2,0.5,0.3,0.7,0.3l0,0c0.3,0,0.6-0.1,0.7-0.3c0.2-0.2,0.6-0.4,0.9-0.4l0,0c0.4,0,0.7,0.1,0.9,0.4
				c0.2,0.2,0.5,0.3,0.7,0.3l0,0c0.3,0,0.6-0.1,0.7-0.3c0.2-0.2,0.6-0.4,0.9-0.4l0,0c0.4,0,0.7,0.1,0.9,0.4c0.2,0.2,0.5,0.3,0.7,0.3
				c0.3,0,0.6-0.1,0.7-0.3c0.2-0.2,0.6-0.4,0.9-0.4l0,0c0.4,0,0.7,0.2,0.9,0.4c0.2,0.2,0.5,0.3,0.7,0.3l0,0c0.3,0,0.6-0.1,0.7-0.3
				c0.2-0.2,0.6-0.4,0.9-0.4l0,0c0.4,0,0.7,0.2,0.9,0.4c0.2,0.2,0.5,0.3,0.7,0.3c0.3,0,0.6-0.1,0.7-0.3c0.2-0.2,0.6-0.4,0.9-0.4l0,0
				c0.4,0,0.7,0.1,0.9,0.4c0.2,0.2,0.5,0.3,0.7,0.3c0.3,0,0.6-0.1,0.7-0.3c0.2-0.2,0.6-0.4,0.9-0.4c0.4,0,0.7,0.1,0.9,0.4
				c0.2,0.2,0.5,0.3,0.7,0.3l0,0c0.3,0,0.6-0.1,0.7-0.3c0.2-0.2,0.6-0.4,0.9-0.4s0.7,0.1,0.9,0.4c0.2,0.2,0.5,0.3,0.7,0.3
				c0.3,0,0.6-0.1,0.7-0.3c0.2-0.2,0.6-0.4,0.9-0.4l0,0c0.4,0,0.7,0.1,0.9,0.4c0.2,0.2,0.5,0.3,0.7,0.3c0.3,0,0.6-0.1,0.7-0.3
				c0.2-0.2,0.6-0.4,0.9-0.4s0.7,0.1,0.9,0.4c0.2,0.2,0.5,0.3,0.7,0.3l0,0c0.3,0,0.6-0.1,0.7-0.3c0.2-0.2,0.6-0.4,0.9-0.4l0,0
				c0.4,0,0.7,0.1,0.9,0.4c0.2,0.2,0.5,0.3,0.7,0.3l0,0c0.3,0,0.6-0.1,0.7-0.3c0.2-0.2,0.6-0.4,0.9-0.4l0,0c0.4,0,0.7,0.1,0.9,0.4
				c0.2,0.2,0.5,0.3,0.7,0.3s0.6-0.1,0.7-0.3c0.2-0.2,0.6-0.4,0.9-0.4l0,0c0.4,0,0.7,0.2,0.9,0.4c0.2,0.2,0.5,0.3,0.7,0.3l0,0
				c0.3,0,0.6-0.1,0.7-0.3c0.2-0.2,0.6-0.4,0.9-0.4l0,0c0.4,0,0.7,0.2,0.9,0.4c0.2,0.2,0.5,0.3,0.7,0.3c0.3,0,0.6-0.1,0.7-0.3
				c0.2-0.2,0.6-0.4,0.9-0.4l0,0c0.4,0,0.7,0.1,0.9,0.4c0.2,0.2,0.5,0.3,0.7,0.3c0.3,0,0.6-0.1,0.7-0.3c0.2-0.2,0.6-0.4,0.9-0.4
				c0.4,0,0.7,0.1,0.9,0.4c0.2,0.2,0.5,0.3,0.7,0.3l0,0c0.3,0,0.6-0.1,0.7-0.3l0.2,0.2c-0.2,0.2-0.6,0.4-0.9,0.4l0,0
				c-0.4,0-0.7-0.1-0.9-0.4c-0.2-0.2-0.5-0.3-0.7-0.3c-0.3,0-0.6,0.1-0.7,0.3c-0.2,0.2-0.6,0.4-0.9,0.4c-0.4,0-0.7-0.1-0.9-0.4
				c-0.2-0.2-0.5-0.3-0.7-0.3l0,0c-0.3,0-0.6,0.1-0.7,0.3c-0.2,0.2-0.6,0.4-0.9,0.4c-0.4,0-0.7-0.1-0.9-0.4
				c-0.2-0.2-0.5-0.3-0.7-0.3l0,0c-0.3,0-0.6,0.1-0.7,0.3c-0.2,0.2-0.6,0.4-0.9,0.4l0,0c-0.4,0-0.7-0.1-0.9-0.4
				c-0.2-0.2-0.5-0.3-0.7-0.3l0,0c-0.3,0-0.6,0.1-0.7,0.3c-0.2,0.2-0.6,0.4-0.9,0.4c-0.4,0-0.7-0.1-0.9-0.4
				c-0.2-0.2-0.5-0.3-0.7-0.3l0,0c-0.3,0-0.6,0.1-0.7,0.3c-0.2,0.2-0.6,0.4-0.9,0.4l0,0c-0.4,0-0.7-0.2-0.9-0.4
				c-0.2-0.2-0.5-0.3-0.7-0.3l0,0c-0.3,0-0.6,0.1-0.7,0.3C160.9,145.2,160.6,145.3,160.2,145.3z"/>
		</g>
	</g>
	<g id="XMLID_80_">
		<path id="XMLID_99_" fill="#424540" d="M3.3,160.1c-0.1,0.1-0.2,0.2-0.2,0.3s0.1,0.2,0.2,0.3c0.1,0.1,0.4,0.2,0.8,0.3
			c0.5,0.1,0.8,0.3,1,0.5s0.4,0.5,0.4,0.9c0,0.4-0.2,0.8-0.5,1c-0.3,0.3-0.7,0.4-1.3,0.4c-0.7,0-1.4-0.3-2-0.8l0.6-0.8
			c0.5,0.4,1,0.7,1.4,0.7c0.2,0,0.3,0,0.5-0.1c0.1-0.1,0.2-0.2,0.2-0.3c0-0.2-0.1-0.3-0.2-0.3c-0.1-0.1-0.3-0.2-0.7-0.3
			c-0.5-0.1-0.9-0.3-1.2-0.5c-0.3-0.2-0.4-0.5-0.4-1c0-0.4,0.2-0.8,0.5-1c0.3-0.2,0.7-0.4,1.2-0.4c0.3,0,0.6,0,0.9,0.2
			c0.3,0.1,0.6,0.3,0.8,0.5L5,160.4c-0.4-0.3-0.8-0.5-1.3-0.5C3.6,160,3.4,160,3.3,160.1z"/>
		<path id="XMLID_96_" fill="#424540" d="M10.4,163.8l-0.4-1H8l-0.4,1H6.5l2-4.7h1l2,4.7H10.4z M9,160.5l-0.6,1.4h1.2L9,160.5z"/>
		<path id="XMLID_95_" fill="#424540" d="M15.8,161.4h1.1v1.7c-0.5,0.5-1.1,0.8-1.9,0.8c-0.7,0-1.3-0.2-1.7-0.7
			c-0.5-0.5-0.7-1-0.7-1.7s0.2-1.3,0.7-1.7s1.1-0.7,1.7-0.7c0.7,0,1.3,0.2,1.7,0.7l-0.5,0.8c-0.2-0.2-0.4-0.3-0.6-0.4
			c-0.2-0.1-0.4-0.1-0.6-0.1c-0.4,0-0.7,0.1-1,0.4c-0.3,0.3-0.4,0.6-0.4,1.1s0.1,0.8,0.4,1.1c0.3,0.3,0.6,0.4,0.9,0.4
			c0.4,0,0.7-0.1,0.9-0.2L15.8,161.4L15.8,161.4z"/>
		<path id="XMLID_94_" fill="#424540" d="M21.8,159.1v0.9h-2.3v1h2.1v0.9h-2.1v1h2.4v0.9h-3.4v-4.7H21.8L21.8,159.1z"/>
		<path id="XMLID_93_" fill="#424540" d="M24.6,160.1c-0.1,0.1-0.2,0.2-0.2,0.3s0.1,0.2,0.2,0.3c0.1,0.1,0.4,0.2,0.8,0.3
			c0.5,0.1,0.8,0.3,1,0.5s0.4,0.5,0.4,0.9c0,0.4-0.2,0.8-0.5,1c-0.3,0.3-0.7,0.4-1.3,0.4c-0.7,0-1.4-0.3-2-0.8l0.6-0.8
			c0.5,0.4,1,0.7,1.4,0.7c0.2,0,0.3,0,0.5-0.1c0.1-0.1,0.2-0.2,0.2-0.3c0-0.2-0.1-0.3-0.2-0.3c-0.1-0.1-0.3-0.2-0.7-0.3
			c-0.5-0.1-0.9-0.3-1.2-0.5c-0.3-0.2-0.4-0.5-0.4-1c0-0.4,0.2-0.8,0.5-1c0.3-0.2,0.7-0.4,1.2-0.4c0.3,0,0.6,0,0.9,0.2
			c0.3,0.1,0.6,0.3,0.8,0.5l-0.5,0.8c-0.4-0.3-0.8-0.5-1.3-0.5C24.8,160,24.7,160,24.6,160.1z"/>
		<path id="XMLID_92_" fill="#424540" d="M29.5,160.1c-0.1,0.1-0.2,0.2-0.2,0.3s0.1,0.2,0.2,0.3c0.1,0.1,0.4,0.2,0.8,0.3
			c0.5,0.1,0.8,0.3,1,0.5s0.4,0.5,0.4,0.9c0,0.4-0.2,0.8-0.5,1c-0.3,0.3-0.7,0.4-1.3,0.4c-0.7,0-1.4-0.3-2-0.8l0.6-0.8
			c0.5,0.4,1,0.7,1.4,0.7c0.2,0,0.3,0,0.5-0.1c0.1-0.1,0.2-0.2,0.2-0.3c0-0.2-0.1-0.3-0.2-0.3c-0.1-0.1-0.3-0.2-0.7-0.3
			c-0.5-0.1-0.9-0.3-1.2-0.5c-0.3-0.2-0.4-0.5-0.4-1c0-0.4,0.2-0.8,0.5-1c0.3-0.2,0.7-0.4,1.2-0.4c0.3,0,0.6,0,0.9,0.2
			c0.3,0.1,0.6,0.3,0.8,0.5l-0.5,0.8c-0.4-0.3-0.8-0.5-1.3-0.5C29.8,160,29.6,160,29.5,160.1z"/>
		<path id="XMLID_91_" fill="#424540" d="M36.7,159.1v0.9h-2.3v1h2.1v0.9h-2.1v1h2.4v0.9h-3.4v-4.7H36.7L36.7,159.1z"/>
		<path id="XMLID_90_" fill="#424540" d="M43,162.9c0.5,0,0.9-0.2,1.3-0.6l0.7,0.7c-0.5,0.6-1.2,0.9-1.9,0.9c-0.7,0-1.3-0.2-1.8-0.7
			c-0.5-0.5-0.7-1-0.7-1.7s0.2-1.3,0.7-1.7s1.1-0.7,1.7-0.7c0.8,0,1.4,0.3,1.9,0.9l-0.6,0.7c-0.3-0.4-0.7-0.6-1.2-0.6
			c-0.4,0-0.7,0.1-1,0.4c-0.3,0.3-0.4,0.6-0.4,1s0.1,0.8,0.4,1.1C42.3,162.8,42.6,162.9,43,162.9z"/>
		<path id="XMLID_89_" fill="#424540" d="M49.3,159.1h1v4.7h-1V162h-1.9v1.8h-1v-4.7h1v2h1.9V159.1z"/>
		<path id="XMLID_88_" fill="#424540" d="M52.1,159.1h1v4.7h-1V159.1z"/>
		<path id="XMLID_87_" fill="#424540" d="M58.3,159.1h1v4.7h-1l-2.2-2.9v2.9h-1v-4.7h1l2.3,3V159.1z"/>
		<path id="XMLID_84_" fill="#424540" d="M65.1,163.2c-0.5,0.5-1.1,0.7-1.7,0.7s-1.3-0.2-1.7-0.7c-0.5-0.5-0.7-1-0.7-1.7
			c0-0.7,0.2-1.3,0.7-1.7c0.5-0.5,1.1-0.7,1.7-0.7s1.3,0.2,1.7,0.7c0.5,0.5,0.7,1,0.7,1.7C65.8,162.1,65.6,162.7,65.1,163.2z
			 M64.7,161.4c0-0.4-0.1-0.8-0.4-1.1c-0.3-0.3-0.6-0.4-1-0.4c-0.4,0-0.7,0.2-1,0.4c-0.3,0.3-0.4,0.6-0.4,1.1c0,0.4,0.1,0.8,0.4,1.1
			c0.3,0.3,0.6,0.4,1,0.4c0.4,0,0.7-0.2,1-0.4C64.6,162.2,64.7,161.9,64.7,161.4z"/>
		<path id="XMLID_83_" fill="#424540" d="M67.3,159.1h1v4.7h-1V159.1z"/>
		<path id="XMLID_82_" fill="#424540" d="M71.3,160.1c-0.1,0.1-0.2,0.2-0.2,0.3s0.1,0.2,0.2,0.3c0.1,0.1,0.4,0.2,0.8,0.3
			c0.5,0.1,0.8,0.3,1,0.5c0.2,0.2,0.4,0.5,0.4,0.9c0,0.4-0.2,0.8-0.5,1c-0.3,0.3-0.7,0.4-1.3,0.4c-0.7,0-1.4-0.3-2-0.8l0.6-0.8
			c0.5,0.4,1,0.7,1.4,0.7c0.2,0,0.3,0,0.5-0.1s0.2-0.2,0.2-0.3c0-0.2-0.1-0.3-0.2-0.3c-0.1-0.1-0.3-0.2-0.7-0.3
			c-0.5-0.1-0.9-0.3-1.2-0.5c-0.3-0.2-0.4-0.5-0.4-1c0-0.4,0.2-0.8,0.5-1c0.3-0.2,0.7-0.4,1.2-0.4c0.3,0,0.6,0,0.9,0.2
			c0.3,0.1,0.6,0.3,0.8,0.5l-0.5,0.8c-0.4-0.3-0.8-0.5-1.3-0.5C71.5,160,71.4,160,71.3,160.1z"/>
		<path id="XMLID_81_" fill="#424540" d="M78.5,159.1v0.9h-2.3v1h2.1v0.9h-2.1v1h2.4v0.9h-3.4v-4.7H78.5L78.5,159.1z"/>
	</g>
</g>
</svg>
